<?xml version="1.0" encoding="utf-8"?>
<svg id="master-artboard" xmlns="http://www.w3.org/2000/svg" viewBox="0 0 500 500" width="500px" height="500px"><defs><style id="ee-google-fonts">@import url(https://fonts.googleapis.com/css?family=Allerta:400|Aladin:400);</style></defs><rect id="ee-background" x="0" y="0" width="500" height="500" style="fill: white; fill-opacity: 0; pointer-events: none;"/><g transform="matrix(4.058225208755136, 0, 0, 6.869799426169704, -1269.2771661612112, -345.2479067723016)"><g id="g-1" transform="matrix(1, 0, 0, 1, 0, 0)">
	<g id="g-2">
		<path class="st0" d="M401.3,110.2c6.7,0.2,13.4-0.9,19.7-3.1c-5.3-4.4-11.4-7.8-17.9-9.9c6.2-2.6,11.9-6.2,16.8-10.8&#10;&#9;&#9;&#9;c-6.6-1.9-13.5-2.6-20.4-1.8c4.6-4.8,8.4-10.5,11-16.7c0,0-11,1.1-20.4,7.1c2.4-6.7,3.6-13.7,3.3-20.8c0,0-10.1,6.1-16,16&#10;&#9;&#9;&#9;c-0.6-7.4-2.8-14.6-6.3-21.2c-3.6,5.9-5.9,12.4-7,19.2c-3.5-5.7-8-10.8-13.3-14.9c-0.9,6.8-0.5,13.7,1.3,20.4&#10;&#9;&#9;&#9;c-5.5-3.9-11.7-6.7-18.2-8.3c1.9,6.6,5.1,12.8,9.4,18.2c-6.6-1.3-13.4-1.4-20-0.3c4.4,5.3,9.9,9.6,16,12.8&#10;&#9;&#9;&#9;c-6.6,1.4-12.8,4.1-18.4,7.8c6.2,3,12.9,4.8,19.7,5.3c-5.4,4-10.1,8.9-13.7,14.5c6.9,0.3,13.7-0.7,20.2-3.1&#10;&#9;&#9;&#9;c-3.4,5.8-5.6,12.2-6.7,18.8c6.4-2.5,12.3-6.2,17.3-11c-0.7,6.7-0.3,13.5,1.4,20c4.9-4.9,8.7-10.6,11.4-17&#10;&#9;&#9;&#9;c2,6.4,5.2,12.4,9.3,17.7c2.5-6.4,3.7-13.2,3.6-20.1c4.4,5.1,9.7,9.3,15.6,12.4c-0.3-6.9-1.9-13.6-4.8-19.9&#10;&#9;&#9;&#9;c6.1,2.8,12.6,4.6,19.3,5.1C410.6,120.3,406.4,114.8,401.3,110.2z" style="fill: rgb(74, 128, 255);"/>
	</g>
</g></g><path d="M 160.6600799560547 239.50001525878906 C 160.9600830078125 239.50001525878906 161.11007690429688 239.88668823242188 161.11007690429688 240.66001892089844 C 161.11007690429688 241.4266815185547 160.9667510986328 242.11334228515625 160.68008422851562 242.7200164794922 C 160.39341735839844 243.32667541503906 160.0467529296875 243.80001831054688 159.64007568359375 244.1400146484375 C 159.23341369628906 244.4733428955078 158.77342224121094 244.74334716796875 158.2600860595703 244.95001220703125 C 156.5467529296875 245.70335388183594 154.94674682617188 245.68667602539062 153.4600830078125 244.90000915527344 C 152.70675659179688 244.50001525878906 152.1300811767578 244.0266876220703 151.73008728027344 243.48001098632812 C 151.330078125 242.9266815185547 151.0100860595703 242.2666778564453 150.77008056640625 241.50001525878906 C 150.40341186523438 240.3466796875 150.22007751464844 239.13668823242188 150.22007751464844 237.87001037597656 C 150.22007751464844 236.61001586914062 150.340087890625 235.4266815185547 150.580078125 234.32000732421875 C 150.82008361816406 233.21334838867188 151.18675231933594 232.16001892089844 151.68008422851562 231.16001892089844 C 152.18008422851562 230.16001892089844 152.8834228515625 229.356689453125 153.7900848388672 228.75001525878906 C 154.7034149169922 228.14334106445312 155.7600860595703 227.8400115966797 156.9600830078125 227.8400115966797 C 157.47341918945312 227.8400115966797 158.00674438476562 227.92335510253906 158.56008911132812 228.0900115966797 C 159.11341857910156 228.25668334960938 159.56341552734375 228.4666748046875 159.9100799560547 228.7200164794922 C 160.26341247558594 228.9666748046875 160.57675170898438 229.3466796875 160.85008239746094 229.86001586914062 C 161.1234130859375 230.36668395996094 161.2600860595703 230.9666748046875 161.2600860595703 231.66001892089844 C 161.2600860595703 232.39334106445312 161.0834197998047 233.0566864013672 160.73008728027344 233.65000915527344 C 160.57008361816406 233.92335510253906 160.31341552734375 234.16668701171875 159.9600830078125 234.38002014160156 C 159.60675048828125 234.59335327148438 159.19007873535156 234.70001220703125 158.7100830078125 234.70001220703125 C 157.97674560546875 234.70001220703125 157.45675659179688 234.37335205078125 157.15008544921875 233.7200164794922 C 157.02342224121094 233.4666748046875 156.9600830078125 233.18667602539062 156.9600830078125 232.88002014160156 C 156.9600830078125 232.57334899902344 157.06341552734375 232.3966827392578 157.27008056640625 232.3500213623047 C 157.4967498779297 232.29000854492188 157.70675659179688 232.11334228515625 157.90008544921875 231.82000732421875 C 158.09341430664062 231.53335571289062 158.19007873535156 231.20001220703125 158.19007873535156 230.82000732421875 C 158.19007873535156 230.5133514404297 158.11007690429688 230.24668884277344 157.95008850097656 230.02001953125 C 157.64341735839844 229.62001037597656 157.2034149169922 229.42001342773438 156.6300811767578 229.42001342773438 C 156.05007934570312 229.42001342773438 155.52342224121094 229.68667602539062 155.05007934570312 230.2200164794922 C 154.5834197998047 230.74668884277344 154.23008728027344 231.41001892089844 153.99008178710938 232.21002197265625 C 153.5100860595703 233.8100128173828 153.27008056640625 235.28001403808594 153.27008056640625 236.62001037597656 C 153.27008056640625 237.9666748046875 153.4534149169922 239.0466766357422 153.82008361816406 239.86001586914062 C 154.26675415039062 240.87335205078125 154.8334197998047 241.5466766357422 155.52008056640625 241.88002014160156 C 155.9534149169922 242.08668518066406 156.45008850097656 242.1900177001953 157.0100860595703 242.1900177001953 C 157.95675659179688 242.1900177001953 158.8034210205078 241.7666778564453 159.55007934570312 240.92001342773438 C 159.87008666992188 240.58668518066406 160.13674926757812 240.18667602539062 160.35008239746094 239.7200164794922 C 160.43008422851562 239.57334899902344 160.53341674804688 239.50001525878906 160.6600799560547 239.50001525878906 ZM 166.46221923828125 234.37001037597656 L 166.46221923828125 234.70001220703125 L 170.71221923828125 234.70001220703125 L 170.71221923828125 234.66001892089844 C 170.72555541992188 234.27334594726562 170.7322235107422 233.78668212890625 170.7322235107422 233.20001220703125 C 170.7322235107422 232.62001037597656 170.72555541992188 232.11001586914062 170.71221923828125 231.67001342773438 C 170.69888305664062 231.23001098632812 170.68222045898438 230.856689453125 170.66221618652344 230.55001831054688 C 170.6488800048828 230.25001525878906 170.62889099121094 229.98667907714844 170.6022186279297 229.760009765625 C 170.58221435546875 229.53335571289062 170.56222534179688 229.36001586914062 170.54222106933594 229.24002075195312 C 170.5288848876953 229.12001037597656 170.522216796875 229.0133514404297 170.522216796875 228.92001342773438 C 170.522216796875 228.82667541503906 170.60888671875 228.71334838867188 170.7822265625 228.58001708984375 C 171.54888916015625 228.07334899902344 172.40554809570312 227.82000732421875 173.3522186279297 227.82000732421875 C 173.945556640625 227.82000732421875 174.24221801757812 227.92335510253906 174.24221801757812 228.13002014160156 C 174.24221801757812 228.14334106445312 174.22555541992188 228.23001098632812 174.1922149658203 228.3900146484375 C 173.88555908203125 229.91001892089844 173.6922149658203 232.0133514404297 173.61221313476562 234.70001220703125 C 173.5655517578125 237.39334106445312 173.54222106933594 238.83334350585938 173.54222106933594 239.02001953125 C 173.54222106933594 241.50001525878906 173.685546875 243.2200164794922 173.9722137451172 244.1800079345703 C 174.0255584716797 244.3133544921875 174.05221557617188 244.42335510253906 174.05221557617188 244.510009765625 C 174.05221557617188 244.5966796875 173.9855499267578 244.69668579101562 173.8522186279297 244.8100128173828 C 173.2655487060547 245.1900177001953 172.49888610839844 245.38002014160156 171.55221557617188 245.38002014160156 C 170.945556640625 245.38002014160156 170.6022186279297 245.17335510253906 170.522216796875 244.760009765625 C 170.47555541992188 244.53335571289062 170.4522247314453 244.18667602539062 170.4522247314453 243.7200164794922 C 170.4522247314453 243.24668884277344 170.4788818359375 242.52001953125 170.5322265625 241.54000854492188 C 170.58555603027344 240.56668090820312 170.62889099121094 238.86334228515625 170.66221618652344 236.43002319335938 L 166.46221923828125 236.43002319335938 C 166.46221923828125 240.07667541503906 166.57554626464844 242.63668823242188 166.80221557617188 244.11001586914062 C 166.80221557617188 244.49668884277344 166.43222045898438 244.8133544921875 165.6922149658203 245.0600128173828 C 164.95889282226562 245.3066864013672 164.3522186279297 245.4300079345703 163.87222290039062 245.4300079345703 C 163.3922119140625 245.4300079345703 163.1522216796875 245.36001586914062 163.1522216796875 245.2200164794922 C 163.1522216796875 245.12001037597656 163.17555236816406 245.00001525878906 163.2222137451172 244.86001586914062 C 163.5288848876953 244.18667602539062 163.68222045898438 241.48001098632812 163.68222045898438 236.74002075195312 L 163.68222045898438 236.43002319335938 L 162.26222229003906 236.43002319335938 C 162.13555908203125 236.43002319335938 162.0722198486328 236.3833465576172 162.0722198486328 236.29000854492188 C 162.0722198486328 236.25668334960938 162.1055450439453 236.1333465576172 162.17222595214844 235.92001342773438 C 162.2322235107422 235.70001220703125 162.37889099121094 235.44668579101562 162.61221313476562 235.16001892089844 C 162.84555053710938 234.87335205078125 163.1055450439453 234.73001098632812 163.3922119140625 234.73001098632812 L 163.6522216796875 234.73001098632812 C 163.6522216796875 231.57667541503906 163.46888732910156 229.760009765625 163.1022186279297 229.28001403808594 L 163.01222229003906 229.1400146484375 C 162.91221618652344 229.0600128173828 162.86221313476562 228.96002197265625 162.86221313476562 228.8400115966797 C 162.86221313476562 228.7200164794922 162.9522247314453 228.62001037597656 163.13221740722656 228.54000854492188 C 163.37222290039062 228.39334106445312 163.79888916015625 228.24667358398438 164.41221618652344 228.1000213623047 C 165.0255584716797 227.96002197265625 165.58221435546875 227.8900146484375 166.08221435546875 227.8900146484375 C 166.57554626464844 227.8900146484375 166.8222198486328 228.00001525878906 166.8222198486328 228.2200164794922 L 166.8222198486328 228.30001831054688 C 166.62889099121094 229.96002197265625 166.50888061523438 231.9833526611328 166.46221923828125 234.37001037597656 ZM 181.84666442871094 231.25001525878906 C 180.57998657226562 232.83001708984375 179.66665649414062 234.41334533691406 179.10665893554688 236.00001525878906 L 179.13665771484375 236.00001525878906 C 181.35665893554688 236.00001525878906 182.63333129882812 236.0033416748047 182.96665954589844 236.010009765625 C 183.29331970214844 236.0166778564453 183.47332763671875 236.00668334960938 183.50665283203125 235.98001098632812 C 183.5333251953125 235.94668579101562 183.55665588378906 235.90667724609375 183.57666015625 235.86001586914062 C 183.30332946777344 233.88668823242188 183.08665466308594 232.5466766357422 182.92665100097656 231.8400115966797 C 182.76666259765625 231.12667846679688 182.60665893554688 230.77001953125 182.4466552734375 230.77001953125 C 182.28665161132812 230.77001953125 182.08665466308594 230.93002319335938 181.84666442871094 231.25001525878906 M 179.7066650390625 242.55001831054688 L 180.23666381835938 242.46002197265625 C 180.3966522216797 242.46002197265625 180.47665405273438 242.5466766357422 180.47665405273438 242.7200164794922 C 180.47665405273438 243.28001403808594 180.3666534423828 243.7533416748047 180.1466522216797 244.1400146484375 C 179.9199981689453 244.52001953125 179.63998413085938 244.79000854492188 179.30665588378906 244.95001220703125 C 178.75999450683594 245.2233428955078 178.29331970214844 245.36001586914062 177.9066619873047 245.36001586914062 C 177.17332458496094 245.36001586914062 176.62332153320312 245.08334350585938 176.25665283203125 244.53001403808594 C 175.88998413085938 243.9766845703125 175.7066650390625 243.1466827392578 175.7066650390625 242.04000854492188 C 175.7066650390625 240.9266815185547 176.00999450683594 239.48001098632812 176.6166534423828 237.70001220703125 L 175.22665405273438 237.70001220703125 C 175.04666137695312 237.70001220703125 174.9566650390625 237.61334228515625 174.9566650390625 237.4400177001953 C 174.9566650390625 237.2666778564453 175.09332275390625 236.9833526611328 175.3666534423828 236.5900115966797 C 175.63998413085938 236.19668579101562 175.92665100097656 236.00001525878906 176.22665405273438 236.00001525878906 L 177.30665588378906 236.00001525878906 C 178.4466552734375 233.4733428955078 179.7833251953125 231.29000854492188 181.316650390625 229.45001220703125 C 181.71665954589844 228.9700164794922 182.20999145507812 228.52001953125 182.79666137695312 228.1000213623047 C 183.3766632080078 227.68667602539062 183.82666015625 227.48001098632812 184.1466522216797 227.48001098632812 C 184.46665954589844 227.48001098632812 184.7066650390625 227.62335205078125 184.8666534423828 227.91001892089844 C 185.28665161132812 228.58334350585938 185.7766571044922 231.04000854492188 186.33665466308594 235.28001403808594 C 186.52999877929688 237.106689453125 186.8599853515625 238.99002075195312 187.32666015625 240.9300079345703 C 187.79998779296875 242.87667846679688 188.23666381835938 244.010009765625 188.63665771484375 244.33001708984375 C 188.73666381835938 244.3900146484375 188.78665161132812 244.4700164794922 188.78665161132812 244.5700225830078 C 188.78665161132812 244.8100128173828 188.4466552734375 245.03335571289062 187.76666259765625 245.24002075195312 C 187.08665466308594 245.44668579101562 186.566650390625 245.55001831054688 186.2066650390625 245.55001831054688 C 185.84666442871094 245.55001831054688 185.5699920654297 245.50668334960938 185.3766632080078 245.42001342773438 C 185.18331909179688 245.33334350585938 185.06332397460938 245.24002075195312 185.01666259765625 245.1400146484375 C 184.72999572753906 244.52001953125 184.4399871826172 243.03335571289062 184.1466522216797 240.6800079345703 L 184.00665283203125 239.55001831054688 C 183.9399871826172 238.7966766357422 183.8766632080078 238.23001098632812 183.816650390625 237.8500213623047 L 183.6466522216797 237.73001098632812 L 178.6266632080078 237.70001220703125 C 178.4399871826172 238.52001953125 178.34666442871094 239.2333526611328 178.34666442871094 239.8400115966797 C 178.34666442871094 240.44668579101562 178.3666534423828 240.8900146484375 178.4066619873047 241.17001342773438 C 178.4466552734375 241.45001220703125 178.57666015625 241.75001525878906 178.79666137695312 242.0700225830078 C 179.02333068847656 242.3900146484375 179.32666015625 242.55001831054688 179.7066650390625 242.55001831054688 ZM 190.74874877929688 227.91001892089844 L 194.20875549316406 228.1000213623047 C 195.74208068847656 228.1000213623047 196.8454132080078 227.91668701171875 197.5187530517578 227.55001831054688 C 197.61209106445312 227.49002075195312 197.69541931152344 227.46002197265625 197.7687530517578 227.46002197265625 C 197.8420867919922 227.46002197265625 197.87875366210938 227.57000732421875 197.87875366210938 227.79000854492188 C 197.87875366210938 228.0166778564453 197.74208068847656 228.38668823242188 197.46875 228.90000915527344 C 197.06875610351562 229.68002319335938 196.49208068847656 230.07000732421875 195.73875427246094 230.07000732421875 L 194.4187469482422 230.05001831054688 C 194.29208374023438 230.05001831054688 194.2120819091797 230.12001037597656 194.1787567138672 230.260009765625 C 194.07208251953125 232.61334228515625 194.0187530517578 235.15335083007812 194.0187530517578 237.88002014160156 C 194.0187530517578 240.61334228515625 194.12875366210938 242.66668701171875 194.3487548828125 244.04000854492188 L 194.3487548828125 244.16001892089844 C 194.3487548828125 244.5600128173828 193.96875 244.88002014160156 193.20875549316406 245.12001037597656 C 192.44874572753906 245.36001586914062 191.73208618164062 245.48001098632812 191.05874633789062 245.48001098632812 C 190.73875427246094 245.48001098632812 190.57875061035156 245.39334106445312 190.57875061035156 245.2200164794922 C 190.57875061035156 245.16668701171875 190.6054229736328 245.0533447265625 190.65875244140625 244.88002014160156 C 190.83209228515625 244.5266876220703 190.98541259765625 242.82334899902344 191.11875915527344 239.77001953125 C 191.25875854492188 236.71002197265625 191.32875061035156 234.40667724609375 191.32875061035156 232.86001586914062 L 191.27874755859375 230.24002075195312 C 191.27874755859375 230.1466827392578 191.23208618164062 230.0900115966797 191.1387481689453 230.07000732421875 C 190.7987518310547 230.010009765625 190.41207885742188 229.98001098632812 189.978759765625 229.98001098632812 C 189.11875915527344 229.98001098632812 188.478759765625 230.15335083007812 188.05874633789062 230.50001525878906 C 187.95208740234375 230.58001708984375 187.8454132080078 230.62001037597656 187.73875427246094 230.62001037597656 C 187.632080078125 230.62001037597656 187.57875061035156 230.5566864013672 187.57875061035156 230.43002319335938 C 187.57875061035156 230.23667907714844 187.6787567138672 229.9733428955078 187.87875366210938 229.6400146484375 C 188.07875061035156 229.3066864013672 188.29208374023438 229.02001953125 188.5187530517578 228.78001403808594 C 189.06541442871094 228.20001220703125 189.80874633789062 227.91001892089844 190.74874877929688 227.91001892089844 ZM 201.98406982421875 234.20001220703125 L 202.0040740966797 237.20001220703125 L 201.9140625 241.3500213623047 C 201.92739868164062 241.41668701171875 201.9507293701172 241.45001220703125 201.98406982421875 241.45001220703125 C 202.0174102783203 241.45001220703125 202.04074096679688 241.433349609375 202.0540771484375 241.40000915527344 C 202.3740692138672 240.95335388183594 202.77073669433594 240.73001098632812 203.2440643310547 240.73001098632812 C 203.7174072265625 240.73001098632812 203.95407104492188 240.82667541503906 203.95407104492188 241.02001953125 C 203.95407104492188 241.62667846679688 204.06739807128906 242.09335327148438 204.2940673828125 242.42001342773438 C 204.52740478515625 242.74668884277344 204.85740661621094 242.91001892089844 205.28407287597656 242.91001892089844 C 205.70407104492188 242.91001892089844 206.11073303222656 242.62335205078125 206.5040740966797 242.05001831054688 C 206.89739990234375 241.4700164794922 207.0940704345703 240.70001220703125 207.0940704345703 239.74002075195312 C 207.0940704345703 239.42001342773438 207.03073120117188 239.03668212890625 206.90406799316406 238.5900115966797 C 206.64407348632812 237.69668579101562 206.1640625 237.0966796875 205.4640655517578 236.79000854492188 C 204.9507293701172 236.58334350585938 204.11740112304688 236.48001098632812 202.9640655517578 236.48001098632812 C 202.83740234375 236.48001098632812 202.77406311035156 236.39334106445312 202.77406311035156 236.2200164794922 C 202.77406311035156 235.32000732421875 202.93406677246094 234.8533477783203 203.2540740966797 234.82000732421875 C 203.68740844726562 234.82000732421875 204.14407348632812 234.71002197265625 204.6240692138672 234.49002075195312 C 205.58407592773438 234.04335021972656 206.06407165527344 233.12335205078125 206.06407165527344 231.73001098632812 C 206.06407165527344 230.2233428955078 205.2007293701172 229.4700164794922 203.4740753173828 229.4700164794922 L 202.7240753173828 229.52001953125 C 202.43740844726562 229.58668518066406 202.27740478515625 229.70668029785156 202.2440643310547 229.88002014160156 L 202.2440643310547 229.95001220703125 C 202.07073974609375 230.5900115966797 201.98406982421875 232.00668334960938 201.98406982421875 234.20001220703125 M 198.45407104492188 245.3400115966797 L 198.5040740966797 245.0700225830078 C 198.6640625 244.78335571289062 198.8007354736328 243.61334228515625 198.9140625 241.5600128173828 C 199.02073669433594 239.50001525878906 199.07406616210938 237.58001708984375 199.07406616210938 235.80001831054688 C 199.07406616210938 234.0133514404297 199.04074096679688 232.58001708984375 198.9740753173828 231.50001525878906 C 198.90074157714844 230.42001342773438 198.70407104492188 229.6400146484375 198.38406372070312 229.16001892089844 C 198.31739807128906 229.08001708984375 198.28407287597656 228.9833526611328 198.28407287597656 228.87001037597656 C 198.28407287597656 228.75668334960938 198.3807373046875 228.66001892089844 198.57406616210938 228.58001708984375 C 199.8874053955078 228.07334899902344 201.6707305908203 227.82000732421875 203.924072265625 227.82000732421875 C 204.48406982421875 227.82000732421875 205.0940704345703 227.89334106445312 205.7540740966797 228.04000854492188 C 206.40740966796875 228.19334411621094 206.94740295410156 228.3833465576172 207.3740692138672 228.61001586914062 C 207.7940673828125 228.83001708984375 208.17739868164062 229.17335510253906 208.52406311035156 229.6400146484375 C 208.86407470703125 230.106689453125 209.06072998046875 230.66001892089844 209.11407470703125 231.30001831054688 C 209.11407470703125 233.62001037597656 208.15406799316406 234.95335388183594 206.23406982421875 235.30001831054688 C 206.13406372070312 235.33334350585938 206.08407592773438 235.37001037597656 206.08407592773438 235.41001892089844 C 206.08407592773438 235.45001220703125 206.1240692138672 235.49334716796875 206.20407104492188 235.54000854492188 C 207.19740295410156 235.70001220703125 208.03073120117188 236.1000213623047 208.70407104492188 236.74002075195312 C 209.0373992919922 237.0466766357422 209.34072875976562 237.52001953125 209.61407470703125 238.16001892089844 C 209.8874053955078 238.80001831054688 210.02406311035156 239.53668212890625 210.02406311035156 240.37001037597656 C 210.02406311035156 241.44334411621094 209.7107391357422 242.46002197265625 209.08407592773438 243.42001342773438 C 208.57073974609375 244.20001220703125 207.82740783691406 244.760009765625 206.85406494140625 245.1000213623047 C 206.30740356445312 245.28668212890625 205.7007293701172 245.38002014160156 205.03407287597656 245.38002014160156 C 203.35406494140625 245.38002014160156 202.2873992919922 244.8466796875 201.83407592773438 243.78001403808594 C 201.82073974609375 243.7266845703125 201.7974090576172 243.70001220703125 201.76406860351562 243.70001220703125 L 201.674072265625 243.80001831054688 C 201.33407592773438 244.92001342773438 200.3740692138672 245.5033416748047 198.7940673828125 245.55001831054688 C 198.56739807128906 245.55001831054688 198.45407104492188 245.48001098632812 198.45407104492188 245.3400115966797 ZM 217.24610900878906 229.5900115966797 C 216.66610717773438 229.5900115966797 216.1861114501953 229.80001831054688 215.80612182617188 230.2200164794922 C 215.13278198242188 230.95335388183594 214.79611206054688 231.8833465576172 214.79611206054688 233.010009765625 C 214.79611206054688 234.13668823242188 215.08277893066406 234.8133544921875 215.65611267089844 235.04000854492188 C 215.8027801513672 235.08668518066406 215.87611389160156 235.1900177001953 215.87611389160156 235.3500213623047 C 215.87611389160156 235.83001708984375 215.7161102294922 236.2333526611328 215.3961181640625 236.5600128173828 C 215.07611083984375 236.89334106445312 214.6827850341797 237.0900115966797 214.2161102294922 237.15000915527344 C 214.07611083984375 237.15000915527344 214.00611877441406 237.20668029785156 214.00611877441406 237.3200225830078 C 213.98611450195312 237.49334716796875 213.9761199951172 237.74668884277344 213.9761199951172 238.08001708984375 C 213.9761199951172 238.40667724609375 213.99278259277344 238.7666778564453 214.02610778808594 239.16001892089844 C 214.0594482421875 239.5466766357422 214.1361083984375 240.010009765625 214.25611877441406 240.55001831054688 C 214.37611389160156 241.08334350585938 214.53611755371094 241.5466766357422 214.73611450195312 241.9400177001953 C 214.9361114501953 242.33334350585938 215.2227783203125 242.67001342773438 215.5961151123047 242.95001220703125 C 215.9761199951172 243.23001098632812 216.4661102294922 243.37001037597656 217.0661163330078 243.37001037597656 C 217.66610717773438 243.37001037597656 218.20611572265625 243.13002014160156 218.6861114501953 242.65000915527344 C 219.16610717773438 242.17001342773438 219.50277709960938 241.5466766357422 219.6961212158203 240.78001403808594 C 220.04278564453125 239.433349609375 220.2161102294922 238.1400146484375 220.2161102294922 236.90000915527344 C 220.2161102294922 235.66001892089844 220.1361083984375 234.56668090820312 219.9761199951172 233.62001037597656 C 219.8161163330078 232.68002319335938 219.62945556640625 231.96002197265625 219.41610717773438 231.46002197265625 C 219.20277404785156 230.9666748046875 218.94277954101562 230.56668090820312 218.6361083984375 230.260009765625 C 218.32945251464844 229.96002197265625 218.07278442382812 229.77334594726562 217.86611938476562 229.70001220703125 C 217.65945434570312 229.62667846679688 217.45277404785156 229.5900115966797 217.24610900878906 229.5900115966797 M 212.87611389160156 231.9700164794922 L 212.9761199951172 231.82000732421875 C 213.1361083984375 231.08668518066406 213.3961181640625 230.45335388183594 213.75611877441406 229.92001342773438 C 214.11611938476562 229.38002014160156 214.4761199951172 228.98001098632812 214.83612060546875 228.7200164794922 C 215.1961212158203 228.45335388183594 215.5994415283203 228.24667358398438 216.04611206054688 228.1000213623047 C 216.6394500732422 227.91334533691406 217.15945434570312 227.82000732421875 217.60610961914062 227.82000732421875 C 218.679443359375 227.82000732421875 219.602783203125 228.06668090820312 220.37611389160156 228.5600128173828 C 221.14944458007812 229.0533447265625 221.73611450195312 229.7266845703125 222.1361083984375 230.58001708984375 C 222.87611389160156 232.19334411621094 223.24610900878906 234.02334594726562 223.24610900878906 236.07000732421875 C 223.24610900878906 239.510009765625 222.4461212158203 242.0133514404297 220.8461151123047 243.58001708984375 C 220.0594482421875 244.3533477783203 219.1961212158203 244.87335205078125 218.25611877441406 245.1400146484375 C 217.66278076171875 245.3200225830078 217.0927734375 245.41001892089844 216.54611206054688 245.41001892089844 C 214.54611206054688 245.41001892089844 213.07611083984375 244.7266845703125 212.1361083984375 243.36001586914062 C 211.189453125 241.98667907714844 210.7161102294922 240.2533416748047 210.7161102294922 238.16001892089844 C 210.7161102294922 236.94668579101562 210.81944274902344 235.83001708984375 211.02610778808594 234.8100128173828 C 211.2327880859375 233.7966766357422 211.44944763183594 233.08001708984375 211.67611694335938 232.66001892089844 L 211.98611450195312 232.04000854492188 C 212.0527801513672 231.89334106445312 212.15611267089844 231.82000732421875 212.29611206054688 231.82000732421875 C 212.44277954101562 231.82000732421875 212.5527801513672 231.83334350585938 212.62611389160156 231.86001586914062 C 212.69944763183594 231.88668823242188 212.75611877441406 231.91001892089844 212.79611206054688 231.93002319335938 C 212.83612060546875 231.95668029785156 212.86277770996094 231.9700164794922 212.87611389160156 231.9700164794922 ZM 235.4936065673828 229.3400115966797 C 235.4936065673828 229.3400115966797 235.41026306152344 229.433349609375 235.2436065673828 229.62001037597656 C 235.0702667236328 229.8066864013672 234.79360961914062 230.1400146484375 234.41360473632812 230.62001037597656 C 234.04026794433594 231.1000213623047 233.41693115234375 232.010009765625 232.54360961914062 233.3500213623047 C 231.67027282714844 234.683349609375 231.2335968017578 235.4700164794922 231.2335968017578 235.71002197265625 L 231.28359985351562 235.88002014160156 C 233.22360229492188 240.36001586914062 234.90359497070312 242.9666748046875 236.3236083984375 243.70001220703125 C 236.50360107421875 243.7666778564453 236.59359741210938 243.86334228515625 236.59359741210938 243.99002075195312 C 236.59359741210938 244.2766876220703 236.15359497070312 244.58001708984375 235.2736053466797 244.90000915527344 C 234.76026916503906 245.08001708984375 234.30026245117188 245.17001342773438 233.8936004638672 245.17001342773438 C 233.4802703857422 245.17001342773438 233.19027709960938 245.13002014160156 233.0236053466797 245.05001831054688 C 232.85693359375 244.9700164794922 232.6869354248047 244.82667541503906 232.51361083984375 244.62001037597656 C 232.33360290527344 244.40667724609375 232.17694091796875 244.19334411621094 232.04360961914062 243.98001098632812 C 231.90359497070312 243.7666778564453 231.7269287109375 243.433349609375 231.51361083984375 242.98001098632812 C 231.30026245117188 242.53335571289062 231.10693359375 242.12335205078125 230.93360900878906 241.75001525878906 C 230.76693725585938 241.37001037597656 230.53359985351562 240.83668518066406 230.2335968017578 240.15000915527344 C 229.92694091796875 239.46334838867188 229.64694213867188 238.8400115966797 229.3936004638672 238.28001403808594 C 229.34027099609375 238.20001220703125 229.28359985351562 238.16001892089844 229.22360229492188 238.16001892089844 C 229.1569366455078 238.16001892089844 229.09359741210938 238.20668029785156 229.03359985351562 238.30001831054688 C 227.80026245117188 240.38002014160156 226.8636016845703 242.3400115966797 226.22360229492188 244.1800079345703 C 226.1436004638672 244.53335571289062 225.79026794433594 244.83334350585938 225.16360473632812 245.08001708984375 C 224.54360961914062 245.33334350585938 223.88026428222656 245.46002197265625 223.17359924316406 245.46002197265625 C 222.46693420410156 245.46002197265625 222.1136016845703 245.3533477783203 222.1136016845703 245.1400146484375 C 222.1136016845703 245.0600128173828 222.16693115234375 244.9766845703125 222.2736053466797 244.8900146484375 C 222.38026428222656 244.8033447265625 222.49693298339844 244.70001220703125 222.62359619140625 244.58001708984375 C 222.75027465820312 244.46002197265625 223.01693725585938 244.16334533691406 223.42359924316406 243.6900177001953 C 223.8302764892578 243.2166748046875 224.25027465820312 242.68667602539062 224.68360900878906 242.1000213623047 C 225.8236083984375 240.5133514404297 226.96693420410156 238.54335021972656 228.1136016845703 236.1900177001953 C 228.16693115234375 236.0966796875 228.193603515625 236.0166778564453 228.193603515625 235.95001220703125 L 228.1436004638672 235.78001403808594 C 226.89694213867188 232.7266845703125 225.7769317626953 230.68002319335938 224.78359985351562 229.6400146484375 C 224.54360961914062 229.40000915527344 224.3202667236328 229.24668884277344 224.1136016845703 229.18002319335938 C 223.95359802246094 229.08668518066406 223.87359619140625 228.9666748046875 223.87359619140625 228.82000732421875 C 223.87359619140625 228.53335571289062 224.2802734375 228.28335571289062 225.09359741210938 228.07000732421875 C 225.9069366455078 227.8500213623047 226.54360961914062 227.74002075195312 227.00360107421875 227.74002075195312 C 227.45693969726562 227.74002075195312 227.7736053466797 227.88668823242188 227.95359802246094 228.18002319335938 C 228.12693786621094 228.4666748046875 228.3135986328125 228.856689453125 228.5135955810547 229.3500213623047 C 228.71360778808594 229.8500213623047 228.92694091796875 230.38002014160156 229.1536102294922 230.9400177001953 C 229.71360778808594 232.36001586914062 230.04026794433594 233.16001892089844 230.13360595703125 233.3400115966797 C 230.2269287109375 233.5133514404297 230.30360412597656 233.6000213623047 230.3636016845703 233.6000213623047 C 230.41693115234375 233.6000213623047 230.46693420410156 233.5600128173828 230.51361083984375 233.48001098632812 C 231.4936065673828 231.7333526611328 232.3202667236328 230.11668395996094 232.9936065673828 228.63002014160156 C 233.1002655029297 228.33001708984375 233.41360473632812 228.12335205078125 233.93360900878906 228.010009765625 C 234.45359802246094 227.8966827392578 235.03359985351562 227.8400115966797 235.67359924316406 227.8400115966797 C 236.3135986328125 227.8400115966797 236.63360595703125 227.9266815185547 236.63360595703125 228.1000213623047 C 236.63360595703125 228.20001220703125 236.58360290527344 228.29335021972656 236.4835968017578 228.38002014160156 C 236.37693786621094 228.4666748046875 236.2736053466797 228.5533447265625 236.17359924316406 228.6400146484375 C 236.0669403076172 228.7333526611328 235.84027099609375 228.9666748046875 235.4936065673828 229.3400115966797 Z" transform="matrix(2.8263368606567383, 0, 0, 2.8263368606567383, -297.333984375, -421.15460205078125)" style="fill: rgb(51, 51, 51); white-space: pre; color: rgb(51, 51, 51);"/><g transform="matrix(0.2340655922889709, 0, 0, 0.2340655922889709, 198.20177142252953, 81.80208987475001)"><g transform="matrix(1, 0, 0, 1, 0, 0)"><g transform="matrix(1, 0, 0, 1, 0, 0)">
		<g>
			<path class="st5" d="M78.4,595.7c5.3,3.4,13.5,5.3,23.1,5.3c13.7,0,29.9-3.8,44.2-11.5c-1.9-1.5-3.7-3.1-5.4-4.8&#10;&#9;&#9;&#9;&#9;c-0.5-0.5-0.9-1.1-1.4-1.6c-6.1,1.3-16.4,3.4-25.1,5.2l-0.8-3.7c7.9-1.6,17.2-3.5,23.4-4.8c-1.1-1.7-2.1-3.6-2.9-5.6&#10;&#9;&#9;&#9;&#9;c-7.6,0.8-17.5,2-24.7,2.9l-0.5-3.8c6.9-0.9,16.4-2,23.8-2.8c-0.7-2-1.2-4.2-1.6-6.3c-8.5,0.1-18.8,0.5-24.9,0.8c0,0,0,0,0,0&#10;&#9;&#9;&#9;&#9;c0,0,0,0,0,0l-0.2-3.8c6-0.3,16-0.7,24.5-0.8c-0.2-2.2-0.4-4.4-0.4-6.6c-8.9-0.7-19.3-1.2-24.7-1.5l0.2-3.8&#10;&#9;&#9;&#9;&#9;c5.4,0.2,15.7,0.7,24.6,1.5c0.2-2.1,0.4-4.2,0.8-6.4c-8.3-1.6-18-3-23.6-3.9v0v0l0.5-3.7c5.7,0.8,15.4,2.3,23.9,3.9&#10;&#9;&#9;&#9;&#9;c0.3-1.1,0.5-2.1,0.8-3.2c0.3-0.9,0.7-1.7,1-2.6c-7.2-2.2-15.7-4.5-21.9-6.1l0.9-3.7c6.3,1.6,15.1,4,22.4,6.2&#10;&#9;&#9;&#9;&#9;c0.8-1.6,1.7-3.1,2.7-4.6c-6-2.7-13.6-5.7-20.1-8.1l1.4-3.5c6.8,2.6,14.8,5.8,21.1,8.6c1.4-1.7,2.9-3.4,4.6-4.9&#10;&#9;&#9;&#9;&#9;c-1.3-0.8-3.3-2-5.8-3.4c-4.8-2.5-11.5-5.6-19.1-7.8c-5.6-1.6-11.3-2.4-16.9-2.4c-13.7,0-26.2,5-34.4,17.2&#10;&#9;&#9;&#9;&#9;c-5.9,8.8-8.7,20.2-8.7,31.6c0,4.8,0.5,9.6,1.5,14.1C63.4,580.2,69.5,590,78.4,595.7z" style="fill: rgb(96, 198, 234);"/>
			<path class="st5" d="M233.6,648.2c2-5.5,3.3-12.1,3.3-19.7c0-5.8-0.7-12.2-2.4-19.1c-1.9-7.8-4.9-15.5-9.5-21&#10;&#9;&#9;&#9;&#9;c-2.1,1.9-4.4,3.6-6.8,5.1l4.5,21.5l-3.7,0.8l-4.2-20.3c-1.9,1-3.8,1.8-5.9,2.6c0.8,6.2,1.9,14.5,3,22l-3.8,0.5&#10;&#9;&#9;&#9;&#9;c-1-7.2-2.1-15.1-2.9-21.3c-2,0.6-4.1,1.1-6.3,1.5c0.3,6.7,0.9,15.1,1.4,22.5l-3.8,0.2c-0.5-7.3-1-15.5-1.4-22.1&#10;&#9;&#9;&#9;&#9;c-0.5,0.1-0.9,0.1-1.4,0.2c-1.7,0.2-3.3,0.3-5,0.4c-0.2,6.8-0.3,15.1-0.4,22.5l-3.8,0c0.1-7.3,0.2-15.6,0.4-22.3c0,0-0.1,0-0.1,0&#10;&#9;&#9;&#9;&#9;c-2,0-4-0.1-6.1-0.3c-0.7,6.5-1.5,14.5-2.2,21.8l-3.8-0.3c0.7-7.3,1.4-15.4,2.2-21.9c-1.9-0.3-3.8-0.6-5.7-1&#10;&#9;&#9;&#9;&#9;c-1.2,6-2.6,13.4-3.9,20.7l-3.7-0.7c1.3-7.3,2.7-14.8,3.9-20.9c-1.7-0.5-3.4-1-5.1-1.7c-1.5,5.4-3.4,12.2-5.3,19.2l-3.7-1&#10;&#9;&#9;&#9;&#9;c2-7.2,3.9-14.3,5.4-19.7c-2.2-1-4.3-2.1-6.3-3.3c-0.5,1.1-2.4,5.3-4.4,11.5c-2.3,7.2-4.6,16.9-4.6,26.8&#10;&#9;&#9;&#9;&#9;c0,11.7,3.1,23.4,12.8,32.2c9.1,8.3,21.7,12.3,34.3,12.3c12.1,0,24.1-3.7,32.6-10.4C226.9,661,231.1,655,233.6,648.2z" style="fill: rgb(96, 198, 234);"/>
			<path class="st5" d="M314.4,550.4c0-9.8-2.1-19.7-6.3-28c-5.7-11.4-17.1-20.8-27.7-22.1c-2.3-0.3-4.5-0.5-6.7-0.5&#10;&#9;&#9;&#9;&#9;c-19.3,0-36.7,11.1-44.1,16.7c-1.4,1.1-2.4,1.9-3,2.4c1.7,1.8,3.3,3.7,4.8,5.7l17.7-6.6l1.3,3.6l-16.8,6.3&#10;&#9;&#9;&#9;&#9;c0.7,1.2,1.5,2.5,2.1,3.8l19.4-4.9l0.9,3.7l-18.9,4.8c0.6,1.5,1.1,3,1.5,4.6l20.6-2.9l0.5,3.7l-20.2,2.9c0.3,1.7,0.6,3.3,0.7,5&#10;&#9;&#9;&#9;&#9;l20.9-0.7l0.1,3.8l-20.9,0.7c0,0.3,0,0.6,0,0.8c0,1.4-0.1,2.8-0.2,4.3l20.7,1.4l-0.3,3.8l-21-1.4c-0.3,1.7-0.6,3.3-1,4.8&#10;&#9;&#9;&#9;&#9;l20.4,3.4l-0.6,3.7l-21-3.5c-0.2,0.4-0.3,0.8-0.4,1.2c-0.4,1-0.9,2-1.4,3l20.5,5.3l-1,3.7l-21.3-5.5c-1.4,2.4-3,4.5-4.7,6.5&#10;&#9;&#9;&#9;&#9;c2.4,1.7,6.5,4.5,11.8,7.3c8.6,4.5,20.1,9,31.6,8.9c1.1,0,2.2,0,3.4-0.1C301.6,598.1,314.3,574.8,314.4,550.4z" style="fill: rgb(96, 198, 234);"/>
			<path class="st5" d="M139.7,474.4c0,10.3,2.6,20.7,5.2,28.4c1.8,5.2,3.5,9.1,4.5,11.2c1.8-1.3,3.6-2.4,5.6-3.4&#10;&#9;&#9;&#9;&#9;c-0.9-5.9-2.2-14.3-3.3-21.7l3.7-0.6c1.1,6.9,2.2,14.7,3.1,20.5c1.6-0.8,3.3-1.4,5-2c0.3-0.1,0.6-0.2,0.9-0.3&#10;&#9;&#9;&#9;&#9;c-0.7-6.9-1.6-15.5-2.3-22.4l3.8-0.4c0.7,6.6,1.5,14.9,2.2,21.6c2.1-0.6,4.1-1.1,6.2-1.4c-0.3-7.5-0.8-16.4-1.1-22.9l3.8-0.2&#10;&#9;&#9;&#9;&#9;c0.3,6.3,0.7,15.1,1.1,22.5c2.1-0.3,4.3-0.4,6.4-0.5c0.1-7.7,0.1-16.7,0.1-22.9h3.8c0,6.2,0,15.2-0.1,22.9&#10;&#9;&#9;&#9;&#9;c2.2,0.1,4.3,0.2,6.4,0.5c0.5-7.3,0.9-16,1.3-22.2l3.8,0.2c-0.3,6.4-0.8,15.2-1.3,22.6c2.1,0.4,4.2,0.9,6.2,1.6&#10;&#9;&#9;&#9;&#9;c0.8-6.5,1.7-14.5,2.4-21l3.8,0.4c-0.7,6.8-1.7,15.2-2.5,21.9c2,0.8,3.9,1.6,5.8,2.6c1-5.3,2.3-12.7,3.4-19.4h0l3.7,0.6&#10;&#9;&#9;&#9;&#9;c-1.2,7.3-2.6,15.4-3.7,20.8c1.6,1,3.1,2.1,4.6,3.3c3.4-7.2,9.5-22.3,10.7-36.2c0.2-1.7,0.2-3.5,0.2-5.1&#10;&#9;&#9;&#9;&#9;c-0.1-18.2-9.2-32.5-27.8-38.8c-6.3-2.1-13.1-3.2-19.8-3.2c-11.5,0-22.9,3.3-31.9,10.6C143.1,450.7,139.7,462.4,139.7,474.4z" style="fill: rgb(96, 198, 234);"/>
			<path class="st1" d="M133.4,552.3c0,0.5,0,1,0,1.5c0,11,3.3,21.8,9.6,28.3c11.1,11.5,26.6,16.3,41.8,16.3c2.8,0,5.7-0.2,8.5-0.5&#10;&#9;&#9;&#9;&#9;c18.3-2.2,33-10.9,40.4-28.4c1.3-3.1,2.2-6.5,2.7-10.2c0.3-2.1,0.4-4.1,0.4-6.1c0-14.3-6.4-26.8-16.7-35.1&#10;&#9;&#9;&#9;&#9;c-9.7-7.8-21.9-11.5-34.2-11.5c-7.2,0-14.4,1.2-21.2,3.6c-12.8,4.5-25.2,14.5-28.9,27.5C134.5,542.4,133.5,547.6,133.4,552.3z&#10;&#9;&#9;&#9;&#9; M151.2,525.3c4.3-4.6,10-8,17-10.2c5.6-1.8,11.8-2.8,18-2.8c12.7,0,25.8,4.2,34.3,14.8c5.5,6.8,8.8,14.5,9.3,22.4&#10;&#9;&#9;&#9;&#9;c0.1,1.1,0.1,2.3,0.1,3.4c0.1,16-8.1,29.2-23.5,35.8c-7.3,3.1-14.7,4.2-21.4,4.2c-1,0-1.9,0-2.9-0.1c-12.8-0.6-26.9-3.9-35-15.5&#10;&#9;&#9;&#9;&#9;c-4.7-6.7-6.9-14.8-6.9-23C140.2,543.7,143.9,533,151.2,525.3z" style="fill: rgb(221, 131, 138);"/>
			<path d="M 168.8000030517578 516.9000244140625 L 168.8000030517578 516.9000244140625 L 168.8000030517578 516.9000244140625 Z" class="st6" style="fill: rgb(205, 127, 90);"/>
			<path class="st3" d="M169.3,518.7c-6.5,2-11.5,5.1-15.4,9.2c-6.5,6.8-10,16.7-10,26.4c0,7.5,2,14.9,6.2,20.8&#10;&#9;&#9;&#9;&#9;c7,10.1,19.7,13.3,32.1,13.9c0.9,0,1.8,0.1,2.7,0.1c6.4,0,13.2-1,19.9-3.9c14.1-6.1,21.1-17.5,21.2-32.3c0-1,0-2.1-0.1-3.2&#10;&#9;&#9;&#9;&#9;c-0.5-7-3.4-13.9-8.5-20.2c-7.6-9.4-19.3-13.4-31.3-13.4C180.4,516.1,174.6,517,169.3,518.7l-0.6-1.8l0,0L169.3,518.7z&#10;&#9;&#9;&#9;&#9; M206.5,581.9L206.5,581.9c-1.5,1.8-3.5,2.7-5.5,2.7c0,0,0,0,0,0c-3.8,0-7.3-2.9-7.4-7c0-1.4,0.5-2.9,1.4-4.2&#10;&#9;&#9;&#9;&#9;c1.4-2.1,3.7-3,5.9-3c3,0,6.3,1.9,7.1,5.6c0.1,0.5,0.2,1.1,0.2,1.6C208.2,579.2,207.5,580.7,206.5,581.9z" style="fill: rgb(131, 85, 170);"/>
			<path d="M 172.5 531.9000244140625 L 172.5 531.9000244140625 L 172.5 531.7999877929688 Z" class="st2" style="fill: rgb(255, 220, 108);"/>
			<path class="st2" d="M171.7,527.9c-0.4-1.8-1.8-2.6-3.4-2.6c-1.1,0-2.2,0.5-2.8,1.4c-0.6,0.8-0.7,1.5-0.7,2.1&#10;&#9;&#9;&#9;&#9;c0,1.7,1.8,3.2,3.6,3.2c0.9,0,1.8-0.3,2.6-1.3l0,0c0.6-0.8,0.8-1.3,0.8-2C171.8,528.4,171.8,528.2,171.7,527.9z" style="fill: rgb(255, 220, 108);"/>
			<path d="M 173.3000030517578 550.7999877929688 L 173.3000030517578 550.7999877929688 L 173.3000030517578 550.7999877929688 Z" class="st2" style="fill: rgb(255, 220, 108);"/>
			<path class="st2" d="M172.6,546.8c-0.4-1.8-1.8-2.6-3.4-2.6c-1.2,0-2.2,0.5-2.8,1.4c-0.6,0.8-0.7,1.5-0.7,2.1&#10;&#9;&#9;&#9;&#9;c0,1.7,1.8,3.3,3.6,3.3c0.9,0,1.8-0.3,2.6-1.3c0.6-0.8,0.8-1.3,0.8-2C172.7,547.4,172.6,547.1,172.6,546.8z" style="fill: rgb(255, 220, 108);"/>
			<path class="st2" d="M160.2,560.3c-0.4-1.7-1.8-2.6-3.4-2.6c-1.1,0-2.2,0.5-2.8,1.4c-0.6,0.8-0.7,1.5-0.7,2.1&#10;&#9;&#9;&#9;&#9;c0,1.7,1.8,3.2,3.6,3.3c0.9,0,1.8-0.3,2.6-1.3v0c0.6-0.8,0.8-1.3,0.8-2C160.3,560.8,160.2,560.6,160.2,560.3z" style="fill: rgb(255, 220, 108);"/>
			<path d="M 160.89999389648438 564.2000122070312 L 160.89999389648438 564.2000122070312 L 160.89999389648438 564.2000122070312 Z" class="st2" style="fill: rgb(255, 220, 108);"/>
			<path d="M 158.89999389648438 545.9000244140625 L 158.89999389648438 545.9000244140625 L 158.89999389648438 545.9000244140625 Z" class="st2" style="fill: rgb(255, 220, 108);"/>
			<path class="st2" d="M151.2,542.8c0,1.7,1.8,3.3,3.6,3.3c0.9,0,1.8-0.3,2.6-1.3h0c0.6-0.8,0.8-1.3,0.8-2c0-0.2,0-0.5-0.1-0.8&#10;&#9;&#9;&#9;&#9;c-0.4-1.7-1.8-2.6-3.4-2.6c-1.1,0-2.2,0.5-2.8,1.4C151.4,541.5,151.2,542.2,151.2,542.8z" style="fill: rgb(255, 220, 108);"/>
			<path class="st2" d="M179.3,561.6c-0.4-1.8-1.8-2.6-3.4-2.6c-1.1,0-2.2,0.5-2.8,1.4c-0.6,0.8-0.7,1.5-0.7,2.1&#10;&#9;&#9;&#9;&#9;c0,1.6,1.8,3.2,3.6,3.2c0.9,0,1.8-0.3,2.6-1.3c0.6-0.8,0.8-1.3,0.8-2C179.4,562.2,179.4,561.9,179.3,561.6z" style="fill: rgb(255, 220, 108);"/>
			<path d="M 180.10000610351562 565.5999755859375 L 180.10000610351562 565.5999755859375 L 180.10000610351562 565.5999755859375 Z" class="st2" style="fill: rgb(255, 220, 108);"/>
			<path class="st2" d="M169.2,575.2c-0.4-1.8-1.8-2.6-3.4-2.6c-1.1,0-2.2,0.5-2.8,1.4c-0.6,0.8-0.7,1.5-0.7,2.1&#10;&#9;&#9;&#9;&#9;c0,1.7,1.8,3.3,3.6,3.3c0.9,0,1.8-0.3,2.6-1.3h0c0.6-0.8,0.8-1.3,0.8-2C169.3,575.8,169.3,575.5,169.2,575.2z" style="fill: rgb(255, 220, 108);"/>
			<path d="M 170 579.2000122070312 L 170 579.2000122070312 L 170 579.2000122070312 Z" class="st2" style="fill: rgb(255, 220, 108);"/>
			<path class="st2" d="M184.7,578.4c-0.4-1.8-1.8-2.6-3.4-2.6c-1.1,0-2.2,0.5-2.8,1.4c-0.6,0.8-0.7,1.5-0.7,2.1&#10;&#9;&#9;&#9;&#9;c0,1.7,1.8,3.3,3.6,3.3c0.9,0,1.8-0.3,2.6-1.3h0c0.6-0.8,0.8-1.3,0.8-2C184.8,579,184.8,578.7,184.7,578.4z" style="fill: rgb(255, 220, 108);"/>
			<path d="M 185.5 582.4000244140625 L 185.5 582.4000244140625 L 185.5 582.4000244140625 Z" class="st2" style="fill: rgb(255, 220, 108);"/>
			<path class="st2" d="M193.5,548.5c-0.4-1.7-1.8-2.6-3.4-2.6c-1.1,0-2.2,0.5-2.8,1.4c-0.6,0.8-0.7,1.5-0.7,2.1&#10;&#9;&#9;&#9;&#9;c0,1.7,1.8,3.3,3.6,3.3c0.9,0,1.8-0.3,2.6-1.3v0c0.6-0.8,0.8-1.3,0.8-2C193.6,549.1,193.6,548.8,193.5,548.5z" style="fill: rgb(255, 220, 108);"/>
			<path d="M 196 568.4000244140625 L 196 568.4000244140625 L 196 568.4000244140625 Z" class="st2" style="fill: rgb(255, 220, 108);"/>
			<path class="st2" d="M195.2,564.4c-0.4-1.7-1.8-2.6-3.4-2.6c-1.1,0-2.2,0.5-2.8,1.4c-0.6,0.8-0.7,1.5-0.7,2.1&#10;&#9;&#9;&#9;&#9;c0,1.7,1.8,3.3,3.6,3.3c0.9,0,1.8-0.3,2.6-1.3l0,0c0.6-0.8,0.8-1.3,0.8-2C195.3,565,195.3,564.7,195.2,564.4z" style="fill: rgb(255, 220, 108);"/>
			<path class="st2" d="M204.3,576.7c-0.4-1.7-1.8-2.6-3.4-2.6c-1.1,0-2.2,0.5-2.8,1.4c-0.6,0.8-0.7,1.5-0.7,2.1&#10;&#9;&#9;&#9;&#9;c0,1.6,1.8,3.2,3.6,3.3c0.9,0,1.8-0.3,2.6-1.3c0.6-0.8,0.8-1.3,0.8-2C204.4,577.3,204.4,577,204.3,576.7z" style="fill: rgb(255, 220, 108);"/>
			<path d="M 216.6999969482422 569.7000122070312 L 216.6999969482422 569.7000122070312 L 216.6999969482422 569.7000122070312 Z" class="st2" style="fill: rgb(255, 220, 108);"/>
			<path class="st2" d="M215.9,565.7c-0.4-1.7-1.8-2.6-3.4-2.6c-1.1,0-2.2,0.5-2.8,1.4c-0.6,0.8-0.7,1.5-0.7,2.1&#10;&#9;&#9;&#9;&#9;c0,1.7,1.8,3.3,3.6,3.3c0.9,0,1.8-0.3,2.6-1.3l0,0c0.6-0.8,0.8-1.3,0.8-2C216,566.2,216,566,215.9,565.7z" style="fill: rgb(255, 220, 108);"/>
			<path d="M 210.39999389648438 556 L 210.39999389648438 556 L 210.39999389648438 556 Z" class="st2" style="fill: rgb(255, 220, 108);"/>
			<path class="st2" d="M202.7,552.9c0,1.6,1.8,3.3,3.6,3.3c0.9,0,1.8-0.3,2.6-1.3c0.6-0.8,0.8-1.3,0.8-2c0-0.2,0-0.5-0.1-0.8&#10;&#9;&#9;&#9;&#9;c-0.4-1.7-1.8-2.6-3.4-2.6c-1.1,0-2.2,0.5-2.8,1.4C202.9,551.6,202.7,552.3,202.7,552.9z" style="fill: rgb(255, 220, 108);"/>
			<path d="M 201.8000030517578 538.5999755859375 L 201.8000030517578 538.5999755859375 L 201.8000030517578 538.5999755859375 Z" class="st2" style="fill: rgb(255, 220, 108);"/>
			<path class="st2" d="M194.1,535.5c0,1.7,1.8,3.3,3.6,3.3c0.9,0,1.8-0.3,2.6-1.3c0.6-0.8,0.8-1.3,0.8-2c0-0.2,0-0.5-0.1-0.8&#10;&#9;&#9;&#9;&#9;c-0.4-1.8-1.8-2.6-3.4-2.6c-1.1,0-2.2,0.5-2.8,1.4C194.3,534.2,194.1,534.9,194.1,535.5z" style="fill: rgb(255, 220, 108);"/>
			<path class="st2" d="M210.6,538.8c0,1.6,1.8,3.2,3.6,3.3c0.9,0,1.8-0.3,2.6-1.3v0c0.6-0.8,0.8-1.3,0.8-2c0-0.2,0-0.5-0.1-0.8&#10;&#9;&#9;&#9;&#9;c-0.4-1.7-1.8-2.6-3.4-2.6c-1.1,0-2.2,0.5-2.8,1.4C210.8,537.6,210.6,538.2,210.6,538.8z" style="fill: rgb(255, 220, 108);"/>
			<path d="M 218.3000030517578 541.9000244140625 L 218.3000030517578 541.9000244140625 L 218.3000030517578 541.9000244140625 Z" class="st2" style="fill: rgb(255, 220, 108);"/>
			<path d="M 185.39999389648438 540.2999877929688 L 185.39999389648438 540.2999877929688 L 185.39999389648438 540.2999877929688 Z" class="st2" style="fill: rgb(255, 220, 108);"/>
			<path class="st2" d="M177.7,537.1c0,1.7,1.8,3.2,3.6,3.3c0.9,0,1.8-0.3,2.6-1.3v0c0.6-0.8,0.8-1.3,0.8-2c0-0.2,0-0.5-0.1-0.8&#10;&#9;&#9;&#9;&#9;c-0.4-1.7-1.8-2.6-3.4-2.6c-1.1,0-2.2,0.5-2.8,1.4C177.9,535.9,177.8,536.5,177.7,537.1z" style="fill: rgb(255, 220, 108);"/>
			<path class="st2" d="M184.4,523.7c0,1.7,1.8,3.2,3.6,3.3c0.9,0,1.8-0.3,2.6-1.3l0,0c0.6-0.8,0.8-1.3,0.8-2c0-0.2,0-0.5-0.1-0.8&#10;&#9;&#9;&#9;&#9;c-0.4-1.8-1.8-2.6-3.4-2.6c-1.1,0-2.2,0.5-2.8,1.4C184.6,522.4,184.4,523.1,184.4,523.7z" style="fill: rgb(255, 220, 108);"/>
		</g>
		<path d="M191.8,558.5c-2.2,0-4.5,1-5.9,3c-0.9,1.3-1.4,2.8-1.4,4.2c0.1,4.2,3.6,7,7.4,7c0,0,0,0,0,0c2,0,4-0.9,5.5-2.7h0&#10;&#9;&#9;&#9;c1-1.2,1.7-2.7,1.7-4.4c0-0.5-0.1-1.1-0.2-1.6C198.1,560.4,194.9,558.4,191.8,558.5z M194.5,567.7c-0.8,1-1.7,1.3-2.6,1.3&#10;&#9;&#9;&#9;c-1.9,0-3.6-1.6-3.6-3.3c0-0.6,0.2-1.3,0.7-2.1c0.6-0.9,1.7-1.4,2.8-1.4c1.6,0,3,0.9,3.4,2.6c0.1,0.3,0.1,0.6,0.1,0.8&#10;&#9;&#9;&#9;C195.3,566.4,195.1,566.9,194.5,567.7z"/>
		<path d="M190.1,542.1c-2.2,0-4.5,1-5.9,3c-0.9,1.3-1.4,2.8-1.4,4.2c0.1,4.2,3.6,7,7.4,7c0,0,0,0,0,0c2,0,4-0.9,5.5-2.7h0&#10;&#9;&#9;&#9;c1-1.2,1.7-2.7,1.7-4.4c0-0.5-0.1-1.1-0.2-1.6C196.4,544,193.1,542.1,190.1,542.1z M192.8,551.3c-0.8,1-1.7,1.3-2.6,1.3&#10;&#9;&#9;&#9;c-1.9,0-3.6-1.6-3.6-3.3c0-0.6,0.2-1.3,0.7-2.1c0.6-0.9,1.7-1.4,2.8-1.4c1.6,0,3,0.9,3.4,2.6c0.1,0.3,0.1,0.6,0.1,0.8&#10;&#9;&#9;&#9;C193.6,550,193.4,550.5,192.8,551.3z"/>
		<path d="M169.3,540.4c-2.2,0-4.5,1-5.9,3c-0.9,1.3-1.4,2.8-1.4,4.2c0.1,4.2,3.6,7,7.4,7c0,0,0,0,0,0c2,0,4-0.9,5.5-2.7h0&#10;&#9;&#9;&#9;c1-1.2,1.7-2.7,1.7-4.4c0-0.5-0.1-1.1-0.2-1.6C175.6,542.3,172.4,540.4,169.3,540.4z M172,549.6c-0.8,1-1.7,1.3-2.6,1.3&#10;&#9;&#9;&#9;c-1.9,0-3.6-1.6-3.6-3.3c0-0.6,0.2-1.3,0.7-2.1c0.6-0.9,1.7-1.4,2.8-1.4c1.6,0,3,0.9,3.4,2.6c0.1,0.3,0.1,0.6,0.1,0.8&#10;&#9;&#9;&#9;C172.8,548.3,172.6,548.8,172,549.6z"/>
		<path d="M168.3,521.4c-2.2,0-4.5,1-5.9,3c-0.9,1.3-1.4,2.8-1.4,4.2c0.1,4.2,3.6,7,7.4,7c0,0,0,0,0,0c2,0,4-0.9,5.5-2.7h0&#10;&#9;&#9;&#9;c1-1.2,1.7-2.7,1.7-4.4c0-0.5-0.1-1.1-0.2-1.6C174.6,523.4,171.4,521.4,168.3,521.4z M171,530.7c-0.8,1-1.7,1.3-2.6,1.3&#10;&#9;&#9;&#9;c-1.9,0-3.6-1.6-3.6-3.3c0-0.6,0.2-1.3,0.7-2.1c0.6-0.9,1.7-1.4,2.8-1.4c1.6,0,3,0.9,3.4,2.6c0.1,0.3,0.1,0.6,0.1,0.8&#10;&#9;&#9;&#9;C171.8,529.3,171.6,529.9,171,530.7z"/>
		<path d="M154.8,535.5c-2.2,0-4.5,1-5.9,3c-0.9,1.3-1.4,2.8-1.4,4.2c0.1,4.2,3.6,7,7.4,7c0,0,0,0,0,0c2,0,4-0.9,5.5-2.7h0&#10;&#9;&#9;&#9;c1-1.2,1.7-2.7,1.7-4.4c0-0.5-0.1-1.1-0.2-1.6C161.1,537.5,157.8,535.5,154.8,535.5z M157.4,544.8c-0.8,1-1.7,1.3-2.6,1.3&#10;&#9;&#9;&#9;c-1.9,0-3.6-1.6-3.6-3.3c0-0.6,0.2-1.3,0.7-2.1c0.6-0.9,1.7-1.4,2.8-1.4c1.6,0,3,0.9,3.4,2.6c0.1,0.3,0.1,0.6,0.1,0.8&#10;&#9;&#9;&#9;C158.3,543.4,158.1,543.9,157.4,544.8z"/>
		<path d="M156.8,553.8c-2.2,0-4.5,1-5.9,3c-0.9,1.3-1.4,2.8-1.4,4.2c0.1,4.2,3.6,7,7.4,7c0,0,0,0,0,0c2,0,4-0.9,5.5-2.7h0&#10;&#9;&#9;&#9;c1-1.2,1.7-2.7,1.7-4.4c0-0.5-0.1-1.1-0.2-1.6C163.1,555.8,159.8,553.8,156.8,553.8z M159.4,563.1c-0.8,1-1.7,1.3-2.6,1.3&#10;&#9;&#9;&#9;c-1.9,0-3.6-1.6-3.6-3.3c0-0.6,0.2-1.3,0.7-2.1c0.6-0.9,1.7-1.4,2.8-1.4c1.6,0,3,0.9,3.4,2.6c0.1,0.3,0.1,0.6,0.1,0.8&#10;&#9;&#9;&#9;C160.2,561.7,160.1,562.3,159.4,563.1z"/>
		<path d="M165.8,568.8c-2.2,0-4.5,1-5.9,3c-0.9,1.3-1.4,2.8-1.4,4.2c0.1,4.2,3.6,7,7.4,7c0,0,0,0,0,0c2,0,4-0.9,5.5-2.7h0&#10;&#9;&#9;&#9;c1-1.2,1.7-2.7,1.7-4.4c0-0.5-0.1-1.1-0.2-1.6C172.1,570.7,168.9,568.8,165.8,568.8z M168.5,578c-0.8,1-1.7,1.3-2.6,1.3&#10;&#9;&#9;&#9;c-1.9,0-3.6-1.6-3.6-3.3c0-0.6,0.2-1.3,0.7-2.1c0.6-0.9,1.7-1.4,2.8-1.4c1.6,0,3,0.9,3.4,2.6c0.1,0.3,0.1,0.6,0.1,0.8&#10;&#9;&#9;&#9;C169.3,576.7,169.1,577.2,168.5,578z"/>
		<path d="M175.9,555.2c-2.2,0-4.5,1-5.9,3c-0.9,1.3-1.4,2.8-1.4,4.2c0.1,4.2,3.6,7,7.4,7c0,0,0,0,0,0c2,0,4-0.9,5.5-2.7h0&#10;&#9;&#9;&#9;c1-1.2,1.7-2.7,1.7-4.4c0-0.5-0.1-1.1-0.2-1.6C182.2,557.2,179,555.2,175.9,555.2z M178.6,564.4c-0.8,1-1.7,1.3-2.6,1.3&#10;&#9;&#9;&#9;c-1.9,0-3.6-1.6-3.6-3.3c0-0.6,0.2-1.3,0.7-2.1c0.6-0.9,1.7-1.4,2.8-1.4c1.6,0,3,0.9,3.4,2.6c0.1,0.3,0.1,0.6,0.1,0.8&#10;&#9;&#9;&#9;C179.4,563.1,179.2,563.6,178.6,564.4z"/>
		<path d="M181.3,572.2c-2.2,0-4.5,1-5.9,3c-0.9,1.3-1.4,2.8-1.4,4.2c0.1,4.2,3.6,7,7.4,7c0,0,0,0,0,0c2,0,4-0.9,5.5-2.7h0&#10;&#9;&#9;&#9;c1-1.2,1.7-2.7,1.7-4.4c0-0.5-0.1-1.1-0.2-1.6C187.6,574.1,184.4,572.1,181.3,572.2z M184,581.4c-0.8,1-1.7,1.3-2.6,1.3&#10;&#9;&#9;&#9;c-1.9,0-3.6-1.6-3.6-3.3c0-0.6,0.2-1.3,0.7-2.1c0.6-0.9,1.7-1.4,2.8-1.4c1.6,0,3,0.9,3.4,2.6c0.1,0.3,0.1,0.6,0.1,0.8&#10;&#9;&#9;&#9;C184.8,580.1,184.6,580.6,184,581.4z"/>
		<path d="M181.3,529.9c-2.2,0-4.5,1-5.9,3c-0.9,1.3-1.4,2.8-1.4,4.2c0.1,4.2,3.6,7,7.4,7c0,0,0,0,0,0c2,0,4-0.9,5.5-2.7h0&#10;&#9;&#9;&#9;c1-1.2,1.7-2.7,1.7-4.4c0-0.5-0.1-1.1-0.2-1.6C187.6,531.8,184.3,529.8,181.3,529.9z M183.9,539.1c-0.8,1-1.7,1.3-2.6,1.3&#10;&#9;&#9;&#9;c-1.9,0-3.6-1.6-3.6-3.3c0-0.6,0.2-1.3,0.7-2.1c0.6-0.9,1.7-1.4,2.8-1.4c1.6,0,3,0.9,3.4,2.6c0.1,0.3,0.1,0.6,0.1,0.8&#10;&#9;&#9;&#9;C184.8,537.8,184.6,538.3,183.9,539.1z"/>
		<path d="M187.9,516.4c-2.2,0-4.5,1-5.9,3c-0.9,1.3-1.4,2.8-1.4,4.2c0.1,4.2,3.6,7,7.4,7c0,0,0,0,0,0c2,0,4-0.9,5.5-2.7h0&#10;&#9;&#9;&#9;c1-1.2,1.7-2.7,1.7-4.4c0-0.5-0.1-1.1-0.2-1.6C194.2,518.3,191,516.4,187.9,516.4z M190.6,525.6c-0.8,1-1.7,1.3-2.6,1.3&#10;&#9;&#9;&#9;c-1.9,0-3.6-1.6-3.6-3.3c0-0.6,0.2-1.3,0.7-2.1c0.6-0.9,1.7-1.4,2.8-1.4c1.6,0,3,0.9,3.4,2.6c0.1,0.3,0.1,0.6,0.1,0.8&#10;&#9;&#9;&#9;C191.4,524.3,191.2,524.8,190.6,525.6z"/>
		<path d="M197.4,528.2c-2.2,0-4.5,1-5.9,3c-0.9,1.3-1.4,2.8-1.4,4.2c0.1,4.2,3.6,7,7.4,7c0,0,0,0,0,0c2,0,4-0.9,5.5-2.7h0&#10;&#9;&#9;&#9;c1-1.2,1.7-2.7,1.7-4.4c0-0.5-0.1-1.1-0.2-1.6C203.7,530.1,200.4,528.1,197.4,528.2z M200.1,537.4c-0.8,1-1.7,1.3-2.6,1.3&#10;&#9;&#9;&#9;c-1.9,0-3.6-1.6-3.6-3.3c0-0.6,0.2-1.3,0.7-2.1c0.6-0.9,1.7-1.4,2.8-1.4c1.6,0,3,0.9,3.4,2.6c0.1,0.3,0.1,0.6,0.1,0.8&#10;&#9;&#9;&#9;C200.9,536.1,200.7,536.6,200.1,537.4z"/>
		<path d="M214.1,531.6c-2.2,0-4.5,1-5.9,3c-0.9,1.3-1.4,2.8-1.4,4.2c0.1,4.2,3.6,7,7.4,7c0,0,0,0,0,0c2,0,4-0.9,5.5-2.7h0&#10;&#9;&#9;&#9;c1-1.2,1.7-2.7,1.7-4.4c0-0.5-0.1-1.1-0.2-1.6C220.4,533.5,217.2,531.5,214.1,531.6z M216.8,540.8c-0.8,1-1.7,1.3-2.6,1.3&#10;&#9;&#9;&#9;c-1.9,0-3.6-1.6-3.6-3.3c0-0.6,0.2-1.3,0.7-2.1c0.6-0.9,1.7-1.4,2.8-1.4c1.6,0,3,0.9,3.4,2.6c0.1,0.3,0.1,0.6,0.1,0.8&#10;&#9;&#9;&#9;C217.6,539.5,217.4,540,216.8,540.8z"/>
		<path d="M206.3,545.6c-2.2,0-4.5,1-5.9,3c-0.9,1.3-1.4,2.8-1.4,4.2c0.1,4.2,3.6,7,7.4,7c0,0,0,0,0,0c2,0,4-0.9,5.5-2.7h0&#10;&#9;&#9;&#9;c1-1.2,1.7-2.7,1.7-4.4c0-0.5-0.1-1.1-0.2-1.6C212.6,547.6,209.3,545.6,206.3,545.6z M208.9,554.9c-0.8,1-1.7,1.3-2.6,1.3&#10;&#9;&#9;&#9;c-1.9,0-3.6-1.6-3.6-3.3c0-0.6,0.2-1.3,0.7-2.1c0.6-0.9,1.7-1.4,2.8-1.4c1.6,0,3,0.9,3.4,2.6c0.1,0.3,0.1,0.6,0.1,0.8&#10;&#9;&#9;&#9;C209.8,553.5,209.6,554.1,208.9,554.9z"/>
		<path d="M212.5,559.3c-2.2,0-4.5,1-5.9,3c-0.9,1.3-1.4,2.8-1.4,4.2c0.1,4.2,3.6,7,7.4,7c0,0,0,0,0,0c2,0,4-0.9,5.5-2.7h0&#10;&#9;&#9;&#9;c1-1.2,1.7-2.7,1.7-4.4c0-0.5-0.1-1.1-0.2-1.6C218.8,561.2,215.6,559.2,212.5,559.3z M215.2,568.5c-0.8,1-1.7,1.3-2.6,1.3&#10;&#9;&#9;&#9;c-1.9,0-3.6-1.6-3.6-3.3c0-0.6,0.2-1.3,0.7-2.1c0.6-0.9,1.7-1.4,2.8-1.4c1.6,0,3,0.9,3.4,2.6c0.1,0.3,0.1,0.6,0.1,0.8&#10;&#9;&#9;&#9;C216,567.2,215.8,567.7,215.2,568.5z"/>
		<path d="M197.4,528.2c-2.2,0-4.5,1-5.9,3c-0.9,1.3-1.4,2.8-1.4,4.2c0.1,4.2,3.6,7,7.4,7c0,0,0,0,0,0c2,0,4-0.9,5.5-2.7h0&#10;&#9;&#9;&#9;c1-1.2,1.7-2.7,1.7-4.4c0-0.5-0.1-1.1-0.2-1.6C203.7,530.1,200.4,528.1,197.4,528.2z M200.1,537.4c-0.8,1-1.7,1.3-2.6,1.3&#10;&#9;&#9;&#9;c-1.9,0-3.6-1.6-3.6-3.3c0-0.6,0.2-1.3,0.7-2.1c0.6-0.9,1.7-1.4,2.8-1.4c1.6,0,3,0.9,3.4,2.6c0.1,0.3,0.1,0.6,0.1,0.8&#10;&#9;&#9;&#9;C200.9,536.1,200.7,536.6,200.1,537.4z"/>
		<path class="st7" d="M141.6,522.3c0,0-19.4-17.3-45.8-9.9c-17.7,4.9-11.7,40.2-5.8,62.9c3,11.6,14.2,19.1,26,17.3&#10;&#9;&#9;&#9;c9.8-1.4,21-3.9,27.8-7.9C144,584.7,117.3,558.8,141.6,522.3z" style="fill: rgb(0, 255, 255);"/>
		<path class="st7" d="M229,522.3c0,0,19.4-17.3,45.8-9.9c17.7,4.9,11.7,40.2,5.8,62.9c-3,11.6-14.2,19.1-26,17.3&#10;&#9;&#9;&#9;c-9.8-1.4-21-3.9-27.8-7.9C226.7,584.7,253.4,558.8,229,522.3z" style="fill: rgb(0, 255, 255);"/>
		<path class="st7" d="M156.1,513.8c0,0-17.3-19.4-9.9-45.8c4.9-17.7,40.2-11.7,62.9-5.8c11.6,3,19.1,14.2,17.3,26&#10;&#9;&#9;&#9;c-1.4,9.8-3.9,21-7.9,27.8C218.5,516.1,192.7,489.4,156.1,513.8z" style="fill: rgb(0, 255, 255);"/>
		<path class="st7" d="M157.6,593c0,0-16.7,19.9-8.5,46.1c5.5,17.5,40.6,10.4,63.1,3.7c11.5-3.4,18.6-14.8,16.5-26.5&#10;&#9;&#9;&#9;c-1.7-9.8-4.5-20.8-8.8-27.6C219.9,588.7,194.9,616.2,157.6,593z" style="fill: rgb(0, 255, 255);"/>
		<path d="M75.4,600.5c6.7,4.2,15.9,6.2,26.2,6.2c12.8,0,27.5-3.1,41.1-9.3c-2.8,7.6-6.7,20.3-6.7,33.8c0,12.6,3.4,26.2,14.6,36.4&#10;&#9;&#9;&#9;c10.4,9.5,24.4,13.8,38.1,13.8c13.2,0,26.3-4,36.1-11.6c6.4-5,11.3-11.8,14.1-19.6c2.3-6.2,3.6-13.4,3.6-21.6&#10;&#9;&#9;&#9;c0-6.3-0.8-13.1-2.6-20.5c-1.1-4.5-2.5-9.2-4.5-13.5c9.2,5.2,22.8,11.2,37.3,11.2c1.3,0,2.5-0.1,3.8-0.1&#10;&#9;&#9;&#9;c29.4-2.3,43.7-29.2,43.6-55.3c0-10.6-2.3-21.3-6.9-30.5c-6.5-12.9-18.8-23.3-32-25.2c-2.5-0.3-5-0.5-7.5-0.5&#10;&#9;&#9;&#9;c-17.9,0.1-33.5,8.3-42.7,14.5c3.2-8.1,6.5-18.9,7.5-29.4c0.2-1.9,0.3-3.8,0.3-5.7c0.1-20.2-10.8-37.4-31.7-44.2&#10;&#9;&#9;&#9;c-6.9-2.3-14.3-3.5-21.6-3.5c-12.6,0-25.3,3.7-35.5,11.9c-12.2,9.8-16,23.7-16,36.7c0,13.9,4.2,27.3,7.4,35.5&#10;&#9;&#9;&#9;c-5.1-2.7-12.3-6.1-20.6-8.4c-6.1-1.7-12.3-2.6-18.5-2.6c-15.1,0-29.8,5.8-39.2,19.7c-6.7,10-9.7,22.5-9.7,34.8&#10;&#9;&#9;&#9;c0,5.2,0.5,10.3,1.6,15.3C58,582.5,64.9,593.8,75.4,600.5z M236.9,628.6c0,7.6-1.2,14.1-3.3,19.7c-2.5,6.8-6.7,12.7-12.3,17.1&#10;&#9;&#9;&#9;c-8.5,6.7-20.5,10.4-32.6,10.4c-12.6,0-25.2-4-34.3-12.3c-9.7-8.8-12.7-20.5-12.8-32.2c0-9.9,2.3-19.6,4.6-26.8&#10;&#9;&#9;&#9;c2-6.2,3.9-10.4,4.4-11.5c2,1.3,4.2,2.4,6.3,3.3c-1.5,5.4-3.4,12.5-5.4,19.7l3.7,1c1.9-7,3.8-13.8,5.3-19.2&#10;&#9;&#9;&#9;c1.7,0.6,3.4,1.2,5.1,1.7c-1.2,6.1-2.6,13.6-3.9,20.9l3.7,0.7c1.3-7.2,2.7-14.7,3.9-20.7c1.9,0.4,3.8,0.8,5.7,1&#10;&#9;&#9;&#9;c-0.8,6.6-1.5,14.6-2.2,21.9l3.8,0.3c0.7-7.3,1.4-15.3,2.2-21.8c2,0.2,4,0.3,6.1,0.3c0,0,0.1,0,0.1,0c-0.2,6.8-0.3,15-0.4,22.3&#10;&#9;&#9;&#9;l3.8,0c0.1-7.4,0.2-15.7,0.4-22.5c1.7-0.1,3.3-0.2,5-0.4c0.5-0.1,0.9-0.1,1.4-0.2c0.3,6.7,0.9,14.9,1.4,22.1l3.8-0.2&#10;&#9;&#9;&#9;c-0.5-7.4-1-15.8-1.4-22.5c2.1-0.4,4.2-0.9,6.3-1.5c0.8,6.1,1.9,14,2.9,21.3l3.8-0.5c-1-7.5-2.2-15.8-3-22c2-0.8,4-1.6,5.9-2.6&#10;&#9;&#9;&#9;l4.2,20.3l3.7-0.8l-4.5-21.5c2.4-1.5,4.7-3.2,6.8-5.1c4.6,5.5,7.6,13.2,9.5,21C236.2,616.4,236.9,622.8,236.9,628.6z M143,582.1&#10;&#9;&#9;&#9;c-6.3-6.5-9.6-17.3-9.6-28.3c0-0.5,0-1,0-1.5c0.1-4.7,1.1-9.9,2.4-14.4c3.8-13.1,16.1-23,28.9-27.5c6.8-2.4,14-3.6,21.2-3.6&#10;&#9;&#9;&#9;c12.4,0,24.6,3.7,34.2,11.5c10.3,8.3,16.7,20.8,16.7,35.1c0,2-0.1,4-0.4,6.1c-0.5,3.7-1.4,7.1-2.7,10.2&#10;&#9;&#9;&#9;c-7.4,17.5-22.1,26.2-40.4,28.4c-2.8,0.3-5.6,0.5-8.5,0.5C169.6,598.4,154.1,593.5,143,582.1z M273.7,499.9c2.2,0,4.5,0.1,6.7,0.5&#10;&#9;&#9;&#9;c10.6,1.4,22,10.7,27.7,22.1c4.2,8.3,6.3,18.1,6.3,28c-0.1,24.4-12.8,47.7-38.3,49.6c-1.1,0.1-2.3,0.1-3.4,0.1&#10;&#9;&#9;&#9;c-11.6,0-23.1-4.4-31.6-8.9c-5.3-2.8-9.4-5.6-11.8-7.3c1.7-2,3.3-4.2,4.7-6.5l21.3,5.5l1-3.7l-20.5-5.3c0.5-1,0.9-2,1.4-3&#10;&#9;&#9;&#9;c0.2-0.4,0.3-0.8,0.4-1.2l21,3.5l0.6-3.7l-20.4-3.4c0.4-1.5,0.8-3.2,1-4.8l21,1.4l0.3-3.8l-20.7-1.4c0.1-1.4,0.2-2.9,0.2-4.3&#10;&#9;&#9;&#9;c0-0.3,0-0.6,0-0.8l20.9-0.7l-0.1-3.8l-20.9,0.7c-0.2-1.7-0.4-3.4-0.7-5l20.2-2.9l-0.5-3.7l-20.6,2.9c-0.4-1.6-0.9-3.1-1.5-4.6&#10;&#9;&#9;&#9;l18.9-4.8l-0.9-3.7l-19.4,4.9c-0.6-1.3-1.4-2.5-2.1-3.8l16.8-6.3l-1.3-3.6l-17.7,6.6c-1.4-2-3-4-4.8-5.7c0.6-0.5,1.6-1.3,3-2.4&#10;&#9;&#9;&#9;C237,511,254.4,499.8,273.7,499.9z M139.7,474.4c0-12,3.4-23.7,13.9-32.2c9-7.3,20.3-10.6,31.9-10.6c6.7,0,13.4,1.1,19.8,3.2&#10;&#9;&#9;&#9;c18.7,6.3,27.7,20.6,27.8,38.8c0,1.7-0.1,3.4-0.2,5.1c-1.3,13.8-7.3,29-10.7,36.2c-1.5-1.2-3.1-2.3-4.6-3.3&#10;&#9;&#9;&#9;c1.1-5.4,2.4-13.5,3.7-20.8l-3.7-0.6h0c-1.1,6.7-2.4,14.1-3.4,19.4c-1.9-1-3.8-1.8-5.8-2.6c0.8-6.6,1.8-15.1,2.5-21.9l-3.8-0.4&#10;&#9;&#9;&#9;c-0.7,6.5-1.6,14.5-2.4,21c-2-0.6-4.1-1.1-6.2-1.6c0.5-7.4,1-16.3,1.3-22.6l-3.8-0.2c-0.3,6.2-0.8,14.9-1.3,22.2&#10;&#9;&#9;&#9;c-2.1-0.3-4.3-0.5-6.4-0.5c0.1-7.7,0.1-16.7,0.1-22.9h-3.8c0,6.2,0,15.2-0.1,22.9c-2.1,0-4.3,0.2-6.4,0.5&#10;&#9;&#9;&#9;c-0.3-7.4-0.8-16.2-1.1-22.5l-3.8,0.2c0.3,6.4,0.8,15.4,1.1,22.9c-2.1,0.4-4.2,0.9-6.2,1.4c-0.7-6.7-1.5-15-2.2-21.6l-3.8,0.4&#10;&#9;&#9;&#9;c0.7,6.9,1.6,15.5,2.3,22.4c-0.3,0.1-0.6,0.2-0.9,0.3c-1.7,0.6-3.3,1.3-5,2c-0.9-5.8-2.1-13.5-3.1-20.5l-3.7,0.6&#10;&#9;&#9;&#9;c1.1,7.4,2.4,15.8,3.3,21.7c-1.9,1-3.8,2.2-5.6,3.4c-1-2-2.7-6-4.5-11.2C142.3,495.2,139.7,484.8,139.7,474.4z M68,521.8&#10;&#9;&#9;&#9;c8.2-12.2,20.7-17.2,34.4-17.2c5.6,0,11.3,0.9,16.9,2.4c7.6,2.1,14.3,5.2,19.1,7.8c2.6,1.4,4.5,2.6,5.8,3.4&#10;&#9;&#9;&#9;c-1.7,1.5-3.2,3.2-4.6,4.9c-6.3-2.8-14.3-6-21.1-8.6l-1.4,3.5c6.4,2.5,14,5.5,20.1,8.1c-1,1.5-1.9,3-2.7,4.6&#10;&#9;&#9;&#9;c-7.4-2.3-16.1-4.6-22.4-6.2l-0.9,3.7c6.2,1.6,14.7,3.9,21.9,6.1c-0.3,0.9-0.7,1.7-1,2.6c-0.3,1-0.6,2.1-0.8,3.2&#10;&#9;&#9;&#9;c-8.4-1.6-18.2-3.1-23.9-3.9l-0.5,3.7c5.6,0.8,15.3,2.3,23.6,3.9c-0.4,2.1-0.6,4.3-0.8,6.4c-9-0.7-19.3-1.2-24.6-1.5l-0.2,3.8&#10;&#9;&#9;&#9;c5.4,0.2,15.8,0.7,24.7,1.5c0,2.2,0.2,4.4,0.4,6.6c-8.5,0.1-18.5,0.5-24.5,0.8l0.2,3.8c6.1-0.3,16.4-0.7,24.9-0.8&#10;&#9;&#9;&#9;c0.4,2.2,0.9,4.3,1.6,6.3c-7.5,0.8-16.9,2-23.8,2.8l0.5,3.8c7.2-0.9,17.2-2.1,24.7-2.9c0.8,2,1.8,3.8,2.9,5.6&#10;&#9;&#9;&#9;c-6.2,1.3-15.5,3.2-23.4,4.8l0.8,3.7c8.7-1.7,19-3.8,25.1-5.2c0.5,0.5,0.9,1.1,1.4,1.6c1.7,1.8,3.5,3.4,5.4,4.8&#10;&#9;&#9;&#9;c-14.3,7.7-30.5,11.5-44.2,11.5c-9.6,0-17.8-1.9-23.1-5.3c-9-5.8-15.1-15.5-17.7-28.2c-1-4.6-1.5-9.3-1.5-14.1&#10;&#9;&#9;&#9;C59.2,542,62.1,530.6,68,521.8z"/>
		<path d="M206.4,588.7c15.4-6.6,23.5-19.7,23.5-35.8c0-1.1,0-2.3-0.1-3.4c-0.5-7.9-3.8-15.6-9.3-22.4&#10;&#9;&#9;&#9;c-8.5-10.5-21.5-14.8-34.3-14.8c-6.2,0-12.4,1-18,2.8c-7,2.2-12.6,5.6-17,10.2c-7.3,7.7-11,18.4-11,29c0,8.2,2.2,16.3,6.9,23&#10;&#9;&#9;&#9;c8.2,11.6,22.2,14.9,35,15.5c0.9,0,1.9,0.1,2.9,0.1C191.7,592.9,199.1,591.8,206.4,588.7z M150.1,575.2&#10;&#9;&#9;&#9;c-4.2-5.9-6.2-13.3-6.2-20.8c0-9.8,3.5-19.6,10-26.4c3.9-4.1,8.9-7.2,15.4-9.2l-0.6-1.8l0.6,1.8c5.3-1.7,11.1-2.6,16.8-2.6&#10;&#9;&#9;&#9;c12,0,23.7,4,31.3,13.4c5.1,6.3,8,13.3,8.5,20.2c0.1,1.1,0.1,2.1,0.1,3.2c-0.1,14.8-7.1,26.2-21.2,32.3&#10;&#9;&#9;&#9;c-6.7,2.9-13.6,3.9-19.9,3.9c-0.9,0-1.8,0-2.7-0.1C169.9,588.5,157.2,585.2,150.1,575.2z"/>
		<path d="M200.9,570.3c-2.2,0-4.5,1-5.9,3c-0.9,1.3-1.4,2.8-1.4,4.2c0.1,4.2,3.6,7,7.4,7c0,0,0,0,0,0c2,0,4-0.9,5.5-2.7h0&#10;&#9;&#9;&#9;c1-1.2,1.7-2.7,1.7-4.4c0-0.5-0.1-1.1-0.2-1.6C207.2,572.3,204,570.3,200.9,570.3z M203.6,579.6c-0.8,1-1.7,1.3-2.6,1.3&#10;&#9;&#9;&#9;c-1.9,0-3.6-1.6-3.6-3.3c0-0.6,0.2-1.3,0.7-2.1c0.6-0.9,1.7-1.4,2.8-1.4c1.6,0,3,0.9,3.4,2.6c0.1,0.3,0.1,0.6,0.1,0.8&#10;&#9;&#9;&#9;C204.4,578.2,204.2,578.7,203.6,579.6z"/>
	</g></g></g><g transform="matrix(0.19255211949348447, 0, 0, 0.19255211949348447, 51.238060596801574, 338.0692195560809)"><g id="Layer_3" transform="matrix(1, 0, 0, 1, 0, 0)">
	<path class="st0" d="M455,151c0,0,31-68,101-36s54,155-101,237c0,0-104-62.6-129-122.8c-25-60.2,0-115.7,50-122.8S455,151,455,151z&#10;&#9;&#9;" style="fill: rgb(237, 28, 36);"/>
	<path class="st2" d="M390.2,127.1c0,0-50.7-4.7-51.7,47.3" style="fill: none; stroke: rgb(255, 255, 255); stroke-width: 10; stroke-miterlimit: 10;"/>
	<path class="st2" d="M532.2,125.9c0,0-45.5-8.9-53.1,34.7" style="fill: none; stroke: rgb(255, 255, 255); stroke-width: 10; stroke-miterlimit: 10;"/>
</g></g><g transform="matrix(0.2299869060516357, 0, 0, 0.2299869060516357, 304.2474439029392, 358.9747086157704)"><g transform="matrix(1, 0, 0, 1, 0, 0)"><g transform="matrix(1, 0, 0, 1, 0, 0)">
		<g>
			<path class="st5" d="M180.9,291.7c-0.8-3.3-1.5-6.5-2.1-9.7c-1.7,7.4-4.4,15.2-8.1,22.7c0.1,1.4,0.4,3.1,1.5,4.7&#10;&#9;&#9;&#9;&#9;c1.3,2,3.1,2.9,5.2,2.9c1.6,0,3.3-0.6,4.8-1.8c1.3-1.1,2.5-2.7,3.4-5.5C183.6,301,182,296.5,180.9,291.7z" style="fill: rgb(96, 198, 234);"/>
			<path class="st5" d="M231.4,151.7c3.4-3.1,7.3-6.1,11.5-8.6c1.9-1.1,3.8-2.1,5.8-3c2.1-2.9,3.1-5.3,3.4-7.1c0-0.3,0.1-0.6,0.1-1&#10;&#9;&#9;&#9;&#9;c0-2.5-1.5-5.2-3.4-6c-0.9-0.4-2.2-0.7-3.5-0.7c-1.3,0-2.7,0.3-3.7,0.7c-2.3,1-4.3,2.9-5.6,4.7c-0.3,0.4-0.5,0.7-0.7,1&#10;&#9;&#9;&#9;&#9;c-0.1,3.5-0.5,6.9-1.1,10.4C233.3,145.5,232.4,148.7,231.4,151.7z" style="fill: rgb(96, 198, 234);"/>
			<path class="st5" d="M249.3,231.5c6.9,4.1,14.3,9.7,20.8,17c1.6,0.5,3.1,0.7,4.4,0.7c0.8,0,1.5-0.1,2.2-0.2&#10;&#9;&#9;&#9;&#9;c4.6-0.8,7.3-3.7,7.2-6.9c0-1.3-0.4-2.8-1.5-4.4c-1.3-1.9-3.5-3.7-5.3-4.9c-0.4-0.3-0.8-0.5-1.1-0.7c-3.1,0.3-6.2,0.4-9.4,0.4&#10;&#9;&#9;&#9;&#9;C260.9,232.6,255.1,232.2,249.3,231.5z" style="fill: rgb(96, 198, 234);"/>
			<path class="st5" d="M88.3,251.3c4.4-4.7,10-9.4,17.3-14.1c-1.7,0.2-3.5,0.2-5.2,0.2c-6.1,0-12.3-1-18.1-3&#10;&#9;&#9;&#9;&#9;c-1.1,0.6-2.6,1.6-3.9,2.7c-2.3,2-4.2,5.4-4.1,8.3c0,1.5,0.4,2.8,1.4,3.9c1.8,2.1,4.1,2.8,6.8,2.8&#10;&#9;&#9;&#9;&#9;C84.4,252.1,86.3,251.8,88.3,251.3z" style="fill: rgb(96, 198, 234);"/>
			<path class="st5" d="M133.2,132.1c0-1.5,0.1-3,0.2-4.5c-2.2-2.8-5.3-5.3-8.1-6.2c-0.8-0.2-1.5-0.4-2.2-0.4&#10;&#9;&#9;&#9;&#9;c-3.2,0-5.8,2.1-6.4,5.5c-0.1,0.5-0.1,1-0.1,1.5c0,2.4,0.8,5,1.6,7c0.2,0.5,0.4,0.9,0.5,1.2c6.3,2.9,11.9,6.7,16.5,10.7&#10;&#9;&#9;&#9;&#9;C134,142.5,133.3,137.6,133.2,132.1z" style="fill: rgb(96, 198, 234);"/>
			<path class="st3" d="M139.7,132.1c0,14,5.9,24.5,8.9,28.8c0.1,0.1,0.1,0.2,0.2,0.3c4.2-3.1,8.9-5.4,13.9-7&#10;&#9;&#9;&#9;&#9;c-1.1-8.4-1.8-16.7-2.2-23.2l4.3-0.3c0.4,6.3,1.1,14.3,2.2,22.4c1.5-0.3,3-0.5,4.5-0.7c-0.1-4.2-0.1-8.3-0.1-12.1&#10;&#9;&#9;&#9;&#9;c0-4.8,0-9.3,0.1-12.9l4.3,0.1c-0.1,3.6-0.1,8-0.1,12.8c0,3.8,0,7.8,0.1,11.8c0.5,0,1-0.1,1.5-0.1c1,0,2.1,0.1,3.1,0.1&#10;&#9;&#9;&#9;&#9;c0.9-9.9,1.8-19.6,2.3-25.9l4.3,0.4c-0.6,6.4-1.4,16-2.4,26c1.5,0.2,2.9,0.5,4.4,0.8c2-9.7,3.7-19.3,4.8-25.9l4.2,0.7&#10;&#9;&#9;&#9;&#9;c-1.1,6.6-2.8,16.3-4.8,26.2c1.3,0.4,2.6,0.8,3.9,1.3c3.1-9,5.6-18.1,7.3-25l4.1,1c-1.7,7-4.3,16.3-7.5,25.5&#10;&#9;&#9;&#9;&#9;c6.2,2.8,11.4,6.7,15.5,11.3c0.2-0.3,0.5-0.6,0.7-1c3.5-5.7,8.6-16,10.6-26.7c0.7-3.6,1.1-7.3,1.1-11c0-12.9-4.6-25.3-14.7-33.6&#10;&#9;&#9;&#9;&#9;c-8.5-7.1-19.1-10.5-29.6-10.5c-20.8,0.1-40.8,13.2-44.4,39.4C139.8,127.6,139.7,129.9,139.7,132.1z" style="fill: rgb(131, 85, 170);"/>
			<path class="st3" d="M100.4,231c3.7,0,7.5-0.4,11.2-1.2c2.5-0.5,14-4.8,20.5-7.2c-1.5-3.6-2.5-7.4-3.2-11.3&#10;&#9;&#9;&#9;&#9;c-1.7,0-3.5,0.1-5.1,0.1c-9.9,0-19-0.5-25.7-1l0.3-4.3c6.7,0.5,15.6,1,25.4,1c1.5,0,3.1,0,4.6-0.1c-0.1-1-0.2-2-0.2-3&#10;&#9;&#9;&#9;&#9;c-11.3-1.2-21.9-2.8-29.2-3.9l0.7-4.2c7.2,1.2,17.5,2.7,28.6,3.9c0.1-1.2,0.2-2.4,0.3-3.7c-10.5-2.4-20.5-4.7-27.3-6.3l1-4.2&#10;&#9;&#9;&#9;&#9;c6.8,1.6,16.7,3.9,27,6.2c0.3-1.3,0.6-2.6,1-4c-9.5-3.3-18.7-6.2-25.3-8.1l1.2-4.1c6.6,2,15.9,4.9,25.5,8.2&#10;&#9;&#9;&#9;&#9;c0.1-0.3,0.2-0.6,0.3-0.9c0.4-1,0.9-2,1.3-3c-8.3-3.9-16.7-7.3-23.1-9.7v0v0l0,0l1.5-4c6.5,2.5,15.1,5.9,23.6,9.9&#10;&#9;&#9;&#9;&#9;c2.4-4.1,5.3-7.8,8.6-11c-0.2-0.2-0.3-0.4-0.5-0.7c-0.5-0.6-1.1-1.4-1.8-2.2c-2.3-2.7-5.7-6.4-9.8-10c-8.4-7.3-20-14.3-32.9-14.3&#10;&#9;&#9;&#9;&#9;c-1.4,0-2.8,0.1-4.2,0.2c-26.8,3.2-40.6,24.5-40.7,46c0,4.2,0.5,8.3,1.6,12.3C61.8,220,80.6,230.9,100.4,231z" style="fill: rgb(131, 85, 170);"/>
			<path class="st3" d="M163,305.8c11.1-19.1,12.9-44,13.2-52.8c0-0.1,0-0.1,0-0.2c-2.7-0.1-5.3-0.5-7.9-1c-2.2,7.3-5.6,17-10,25.9&#10;&#9;&#9;&#9;&#9;l-3.8-1.9c4.2-8.5,7.5-17.9,9.7-25c-0.9-0.2-1.8-0.6-2.6-0.8c-3.3,7.1-8,16.4-13.4,24.9v0l-3.6-2.3c5.2-8.2,9.8-17.2,13-24.2&#10;&#9;&#9;&#9;&#9;c-0.9-0.4-1.8-0.8-2.7-1.3c-4.2,6.5-10,15-16.2,23.2l-3.4-2.6c6-7.9,11.7-16.3,15.9-22.7c-0.9-0.5-1.7-1.1-2.5-1.7&#10;&#9;&#9;&#9;&#9;c-5,5.6-11.8,13.2-18.5,21l-3.2-2.8c6.7-7.7,13.4-15.2,18.4-20.8c-0.7-0.6-1.4-1.2-2-1.8c-5.6,4.6-13.3,11.2-20.7,18.5l-3-3.1&#10;&#9;&#9;&#9;&#9;c7.5-7.3,15.1-13.9,20.8-18.5c-1.9-2.2-3.6-4.6-5.1-7.1c-27.8,12.7-41,23.5-47.9,34.4c-4.9,7.8-7.1,15.5-7.1,22.8&#10;&#9;&#9;&#9;&#9;c0,22.8,20.8,42.4,46.4,42.5c1.9,0,3.7-0.1,5.6-0.3C144.4,326.8,156.6,316.8,163,305.8z" style="fill: rgb(131, 85, 170);"/>
			<path class="st3" d="M230,329.3c4.5,0,9.3-0.7,14.3-2.1c20.2-5.6,34-24.6,34-44c0-7.9-2.2-15.8-7.3-23.1&#10;&#9;&#9;&#9;&#9;c-9.1-13.2-21.5-21.6-31.8-26.7c-7.3-3.6-13.3-5.5-16.1-6.3c-1.2,2.2-2.5,4.3-4,6.3c6.9,5.2,15.6,11.9,22.5,18.3l-2.9,3.1&#10;&#9;&#9;&#9;&#9;c-6.8-6.3-15.4-13-22.3-18.2c-0.6,0.7-1.2,1.3-1.8,1.9c6.3,6.4,13.9,14.3,20,20.9l-3.1,2.9c-6-6.6-13.7-14.5-20-20.9&#10;&#9;&#9;&#9;&#9;c-0.8,0.7-1.6,1.3-2.4,1.9c5.5,7.6,12.3,16.6,17.6,23.3l-3.3,2.7c-5.5-6.8-12.3-16-17.9-23.6c-0.9,0.5-1.8,1.1-2.8,1.5&#10;&#9;&#9;&#9;&#9;c4.6,8.6,10.4,18.8,15.2,25.7l-3.5,2.5c-5.1-7.2-10.9-17.6-15.6-26.3c-0.9,0.4-1.9,0.7-2.8,1c3.5,9.3,8.1,20.5,12.3,27.9&#10;&#9;&#9;&#9;&#9;l-3.7,2.1c-4.5-7.8-9.2-19.3-12.7-28.8c-3.1,0.8-6.3,1.3-9.5,1.5c0,6.2,0.6,21.6,4.5,37.4C193.1,313.9,208.4,329.3,230,329.3z" style="fill: rgb(131, 85, 170);"/>
			<path class="st3" d="M313,186.2c0-11-3.5-22.1-9.9-29.7c-4.6-5.6-10.5-9.5-17-11.9c-4.9-1.8-10.2-2.7-15.6-2.7&#10;&#9;&#9;&#9;&#9;c-8.5,0-17,2.3-24.3,6.7c-8,4.9-14.8,11.7-19.5,17.2c-1.7,2-3.2,3.9-4.3,5.4c-0.7,1.1-1.3,2-1.9,2.8c0.9,1.4,1.8,2.7,2.5,4.2&#10;&#9;&#9;&#9;&#9;c7.7-4.7,16.4-9.2,23.6-12.5l1.8,3.9c-7.1,3.3-15.9,7.8-23.5,12.5c0.2,0.5,0.4,1,0.6,1.5c8.6-3.8,18.4-7.3,25.9-9.5l1.2,4.1&#10;&#9;&#9;&#9;&#9;c-7.4,2.2-17.3,5.7-25.7,9.5c0.3,0.9,0.5,1.7,0.7,2.6c9.1-2.6,19.3-4.8,27.2-6.2l0.7,4.2c-7.8,1.4-18.1,3.6-27.1,6.2&#10;&#9;&#9;&#9;&#9;c0.2,1.2,0.3,2.3,0.4,3.5c9.1-1.3,19.4-2.4,27.6-3.2l0,0l0.4,4.2c-8.4,0.8-18.8,1.9-27.8,3.3c0,0.2,0,0.4,0,0.6&#10;&#9;&#9;&#9;&#9;c0,1.2,0,2.3-0.1,3.5c8.8-0.2,18.9-0.3,27.7-0.7l0.2,4.3c-9.1,0.4-19.5,0.5-28.4,0.7c-0.5,3.6-1.4,7.1-2.6,10.5&#10;&#9;&#9;&#9;&#9;c12.6,2.6,27.2,5.2,40.8,5.2c10.1,0,19.6-1.4,27.1-5C306.7,215.1,313,201,313,186.2z" style="fill: rgb(131, 85, 170);"/>
			<path class="st2" d="M195.4,161.9l1.1-2.9h0L195.4,161.9c-6.4-2.4-12.5-3.5-18.3-3.5c-3.8,0-7.5,0.6-10.9,1.5&#10;&#9;&#9;&#9;&#9;c2.8,0.6,5.4,2.7,6.1,6.1c0.1,0.6,0.2,1.2,0.2,1.8c0,1.9-0.8,3.6-1.9,4.9l-1.7-1.3l0,0l1.7,1.3c-1.6,2.1-4,3.1-6.2,3.1&#10;&#9;&#9;&#9;&#9;c0,0,0,0-0.1,0c-4.2,0-8.2-3.3-8.3-7.9c0-1.6,0.5-3.2,1.5-4.7c-5.6,2.9-10.3,7.1-14.2,12.4c1.4-1,3.1-1.5,4.8-1.5&#10;&#9;&#9;&#9;&#9;c3.4,0,7.1,2.2,8,6.3c0.1,0.6,0.2,1.2,0.2,1.8c0,1.9-0.8,3.6-1.8,4.9l-1.7-1.3l0,0l1.7,1.3c-1.7,2.1-4,3.1-6.2,3.1c0,0,0,0-0.1,0&#10;&#9;&#9;&#9;&#9;c-4.2,0-8.3-3.3-8.3-7.9c0-0.5,0.1-1,0.2-1.4c-0.8,1.5-1.6,3-2.2,4.6c-2.2,5.5-3.3,11.4-3.3,17.3c0,15.4,7.6,30.3,21.5,38&#10;&#9;&#9;&#9;&#9;c0.1,0.1,0.3,0.1,0.4,0.2c-0.9-1.2-1.5-2.7-1.5-4.4c0-1.6,0.5-3.3,1.6-4.8c1.6-2.3,4.2-3.4,6.7-3.4c3.4,0,7.1,2.2,8,6.3&#10;&#9;&#9;&#9;&#9;c0.1,0.6,0.2,1.2,0.2,1.8c0,1.9-0.8,3.6-1.9,4.9l-1.7-1.3l0,0l1.7,1.3c-1.3,1.7-3.2,2.6-5,2.9c4.6,1.5,9.4,2.3,14.3,2.3&#10;&#9;&#9;&#9;&#9;c6.1,0,12.2-1.2,18-3.6c17.3-7.2,25.8-23.5,25.8-40.1C222.7,185.6,213.5,168.7,195.4,161.9z M199.8,176c1.6-2.3,4.2-3.4,6.7-3.4&#10;&#9;&#9;&#9;&#9;c3.4,0,7.1,2.2,8,6.3c0.1,0.6,0.2,1.2,0.2,1.8c0,1.9-0.8,3.6-1.9,4.9l-1.7-1.3l1.7,1.3c-1.6,2.1-4,3.1-6.2,3.1c0,0-0.1,0-0.1,0&#10;&#9;&#9;&#9;&#9;c-4.2,0-8.3-3.2-8.3-7.9C198.3,179.1,198.8,177.5,199.8,176z M199.8,190.4c0.1,0.6,0.2,1.2,0.2,1.8c0,1.9-0.8,3.6-1.8,4.9&#10;&#9;&#9;&#9;&#9;c-1.7,2.1-4,3.1-6.2,3.1c0,0,0,0-0.1,0c-4.2,0-8.2-3.2-8.3-7.9c0-1.6,0.5-3.2,1.6-4.8c1.6-2.3,4.2-3.4,6.7-3.4&#10;&#9;&#9;&#9;&#9;C195.2,184.1,198.9,186.3,199.8,190.4z M186.4,160.1c3.4,0,7.1,2.2,8,6.3c0.1,0.6,0.2,1.2,0.2,1.8c0,1.9-0.8,3.6-1.9,4.9&#10;&#9;&#9;&#9;&#9;l-1.7-1.3l0,0l1.7,1.3c-1.6,2.1-4,3.1-6.2,3.1c0,0,0,0-0.1,0c-4.2,0-8.3-3.2-8.3-7.9c0-1.6,0.5-3.3,1.6-4.8&#10;&#9;&#9;&#9;&#9;C181.3,161.2,183.9,160.1,186.4,160.1z M165.8,178.7c1.6-2.3,4.2-3.4,6.7-3.4c3.4,0,7.1,2.2,8,6.3c0.1,0.6,0.2,1.2,0.2,1.8&#10;&#9;&#9;&#9;&#9;c0,1.9-0.8,3.6-1.9,4.9l0,0c-1.6,2.1-4,3.1-6.2,3.1c0,0-0.1,0-0.1,0c-4.2,0-8.3-3.3-8.3-7.9C164.2,181.8,164.7,180.2,165.8,178.7&#10;&#9;&#9;&#9;&#9;z M139.1,196.8c1.6-2.3,4.2-3.4,6.7-3.4c3.4,0,7.1,2.2,8,6.3c0.1,0.6,0.2,1.2,0.2,1.8c0,1.9-0.8,3.6-1.9,4.9l-1.7-1.3l0,0&#10;&#9;&#9;&#9;&#9;l1.7,1.3c-1.6,2.1-4,3.1-6.2,3.1c0,0,0,0-0.1,0c-4.2,0-8.3-3.2-8.3-7.9C137.5,200,138,198.4,139.1,196.8z M154.4,225.4l-1.7-1.3&#10;&#9;&#9;&#9;&#9;l0,0L154.4,225.4c-1.6,2.1-4,3.1-6.2,3.1c0,0-0.1,0-0.1,0c-4.2,0-8.3-3.3-8.3-7.9c0-1.6,0.5-3.3,1.6-4.8c1.6-2.3,4.2-3.4,6.7-3.4&#10;&#9;&#9;&#9;&#9;c3.4,0,7.1,2.2,8,6.3c0.1,0.6,0.2,1.2,0.2,1.8C156.3,222.4,155.5,224.1,154.4,225.4z M156.1,200.5c0-1.6,0.5-3.3,1.6-4.8&#10;&#9;&#9;&#9;&#9;c1.6-2.3,4.2-3.4,6.7-3.4c3.4,0,7.1,2.2,8,6.3c0.1,0.6,0.2,1.2,0.2,1.8c0,1.9-0.7,3.6-1.8,4.9L169,204l1.7,1.3&#10;&#9;&#9;&#9;&#9;c-1.6,2.1-4,3.1-6.2,3.1c0,0,0,0-0.1,0C160.2,208.4,156.2,205.1,156.1,200.5z M169.9,226.6C169.9,226.6,169.9,226.6,169.9,226.6&#10;&#9;&#9;&#9;&#9;c-4.3,0-8.3-3.3-8.4-7.9c0-1.6,0.5-3.2,1.6-4.8c1.6-2.3,4.2-3.4,6.7-3.4c3.4,0,7.1,2.2,8,6.3c0.1,0.6,0.2,1.2,0.2,1.8&#10;&#9;&#9;&#9;&#9;c0,1.9-0.8,3.6-1.9,4.9l-1.7-1.3l0,0l1.7,1.3C174.4,225.6,172.1,226.6,169.9,226.6z M189.3,240.9L189.3,240.9&#10;&#9;&#9;&#9;&#9;c-1.6,2.1-4,3.1-6.2,3.1c0,0,0,0-0.1,0c-4.2,0-8.3-3.3-8.3-7.9c0-1.6,0.5-3.2,1.6-4.8c1.6-2.3,4.2-3.4,6.7-3.4&#10;&#9;&#9;&#9;&#9;c3.4,0,7.1,2.2,8,6.3c0.1,0.6,0.2,1.2,0.2,1.8C191.1,237.8,190.4,239.6,189.3,240.9z M195.4,217.7c-1.6,2.1-4,3.1-6.2,3.1&#10;&#9;&#9;&#9;&#9;c0,0,0,0-0.1,0c-4.2,0-8.3-3.3-8.3-7.9c0-1.6,0.5-3.3,1.6-4.8c1.6-2.3,4.2-3.4,6.7-3.4c3.4-0.1,7.1,2.2,8,6.3&#10;&#9;&#9;&#9;&#9;c0.1,0.6,0.2,1.2,0.2,1.8C197.3,214.6,196.5,216.3,195.4,217.7l-1.7-1.3l0,0L195.4,217.7z M210.9,230.8l-1.7-1.3L210.9,230.8&#10;&#9;&#9;&#9;&#9;c-1.7,2.1-4,3.1-6.2,3.1c0,0,0,0-0.1,0c-4.2,0-8.3-3.3-8.3-7.9c0-1.6,0.5-3.3,1.6-4.8c1.6-2.3,4.2-3.4,6.7-3.4&#10;&#9;&#9;&#9;&#9;c3.4,0,7.1,2.2,8,6.3c0.1,0.6,0.2,1.2,0.2,1.8C212.8,227.8,212,229.5,210.9,230.8z M215.2,209.2c-1.6,2.1-4,3.1-6.2,3.1&#10;&#9;&#9;&#9;&#9;c0,0-0.1,0-0.1,0c-4.2,0-8.3-3.3-8.3-7.9c0-1.6,0.5-3.3,1.6-4.8c1.6-2.3,4.2-3.4,6.7-3.4c3.4,0,7.1,2.2,8,6.3&#10;&#9;&#9;&#9;&#9;c0.1,0.6,0.2,1.2,0.2,1.8C217.1,206.1,216.3,207.8,215.2,209.2l-1.7-1.3l0,0L215.2,209.2z" style="fill: rgb(255, 220, 108);"/>
			<path d="M 193.8000030517578 216.39999389648438 L 193.8000030517578 216.39999389648438 L 193.8000030517578 216.39999389648438 Z" class="st2" style="fill: rgb(255, 220, 108);"/>
			<path class="st1" d="M192.9,211.9c-0.4-2-2-2.9-3.8-3c-1.3,0-2.5,0.5-3.1,1.6c-0.6,0.9-0.8,1.7-0.9,2.4c0,1.9,2,3.7,4.1,3.7&#10;&#9;&#9;&#9;&#9;c1,0,2-0.4,2.9-1.5c0.7-0.9,0.9-1.5,0.9-2.3C193,212.5,193,212.2,192.9,211.9z" style="fill: rgb(221, 131, 138);"/>
			<path class="st1" d="M168.5,183.4c0,1.9,2,3.7,4.1,3.7c1.1,0,2-0.4,2.9-1.5c0.7-0.9,0.9-1.5,0.9-2.3c0-0.3,0-0.6-0.1-0.9&#10;&#9;&#9;&#9;&#9;c-0.4-2-2-2.9-3.8-3c-1.3,0-2.5,0.5-3.2,1.6C168.7,182,168.5,182.8,168.5,183.4z" style="fill: rgb(221, 131, 138);"/>
			<path class="st1" d="M173.6,217.7c-0.4-2-2-2.9-3.8-3c-1.3,0-2.4,0.5-3.1,1.6c-0.6,0.9-0.8,1.7-0.8,2.4c0,1.9,2,3.7,4.1,3.7&#10;&#9;&#9;&#9;&#9;c1,0,2-0.4,2.9-1.5c0.7-0.9,0.9-1.5,0.9-2.3C173.7,218.3,173.6,218,173.6,217.7z" style="fill: rgb(221, 131, 138);"/>
			<path d="M 174.39999389648438 222.1999969482422 L 174.39999389648438 222.1999969482422 L 174.39999389648438 222.1999969482422 Z" class="st2" style="fill: rgb(255, 220, 108);"/>
			<path class="st1" d="M212.7,203.4c-0.4-2-2-2.9-3.8-3c-1.3,0-2.5,0.5-3.1,1.6c-0.6,0.9-0.8,1.7-0.8,2.4c0,1.9,2,3.7,4.1,3.7&#10;&#9;&#9;&#9;&#9;c1,0,2-0.4,2.9-1.5h0c0.7-0.9,0.9-1.5,0.9-2.3C212.8,204,212.7,203.7,212.7,203.4z" style="fill: rgb(221, 131, 138);"/>
			<path d="M 213.5 207.8000030517578 L 213.5 207.8000030517578 L 213.5 207.8000030517578 Z" class="st2" style="fill: rgb(255, 220, 108);"/>
			<path d="M 191.10000610351562 171.89999389648438 L 191.10000610351562 171.89999389648438 L 191.10000610351562 171.89999389648438 Z" class="st2" style="fill: rgb(255, 220, 108);"/>
			<path class="st1" d="M182.4,168.3c0,1.9,2,3.7,4.1,3.7c1,0,2-0.4,2.9-1.5v0c0.7-0.9,0.9-1.5,0.9-2.3c0-0.3,0-0.6-0.1-0.9&#10;&#9;&#9;&#9;&#9;c-0.4-2-2-2.9-3.8-3c-1.3,0-2.4,0.5-3.1,1.6C182.6,166.9,182.4,167.7,182.4,168.3z" style="fill: rgb(221, 131, 138);"/>
			<path class="st1" d="M202.5,180.7c0,1.9,2,3.7,4.1,3.7c1,0,2-0.4,2.9-1.5v0c0.7-0.9,0.9-1.5,0.9-2.3c0-0.3,0-0.6-0.1-0.9&#10;&#9;&#9;&#9;&#9;c-0.4-2-2-2.9-3.8-3c-1.3,0-2.5,0.5-3.1,1.6C202.7,179.3,202.5,180.1,202.5,180.7z" style="fill: rgb(221, 131, 138);"/>
			<path class="st1" d="M208.4,225c-0.4-2-2-2.9-3.8-3c-1.3,0-2.5,0.5-3.1,1.6c-0.6,0.9-0.8,1.7-0.8,2.4c0,1.9,2,3.7,4.1,3.7&#10;&#9;&#9;&#9;&#9;c1.1,0,2-0.4,2.9-1.5l0,0c0.7-0.9,0.9-1.5,0.9-2.3C208.5,225.7,208.5,225.4,208.4,225z" style="fill: rgb(221, 131, 138);"/>
			<path class="st1" d="M186.7,235.1c-0.4-2-2-2.9-3.8-3c-1.3,0-2.4,0.5-3.1,1.6c-0.6,0.9-0.8,1.7-0.8,2.4c0,1.9,2,3.7,4.1,3.7&#10;&#9;&#9;&#9;&#9;c1.1,0,2-0.4,2.9-1.5c0.7-0.9,0.9-1.5,0.9-2.3C186.8,235.7,186.8,235.4,186.7,235.1z" style="fill: rgb(221, 131, 138);"/>
			<path d="M 150.39999389648438 205.10000610351562 L 150.39999389648438 205.10000610351562 L 150.39999389648438 205.10000610351562 Z" class="st2" style="fill: rgb(255, 220, 108);"/>
			<path class="st1" d="M141.8,201.6c0,1.9,2,3.7,4.1,3.7c1,0,2-0.4,2.9-1.5l0,0c0.7-0.9,0.9-1.5,0.9-2.3c0-0.3,0-0.6-0.1-0.9&#10;&#9;&#9;&#9;&#9;c-0.4-2-2-2.9-3.8-3c-1.3,0-2.5,0.5-3.1,1.6C142,200.2,141.8,201,141.8,201.6z" style="fill: rgb(221, 131, 138);"/>
			<path class="st1" d="M151.1,184.5c0.7-0.9,0.9-1.5,0.9-2.3c0-0.3,0-0.6-0.1-0.9c-0.4-2-2-2.9-3.8-3c-1.3,0-2.5,0.5-3.2,1.6&#10;&#9;&#9;&#9;&#9;c-0.6,0.9-0.8,1.7-0.8,2.4c0,1.9,2,3.7,4.1,3.7C149.2,185.9,150.2,185.6,151.1,184.5z" style="fill: rgb(221, 131, 138);"/>
			<path d="M 152.8000030517578 185.8000030517578 L 152.8000030517578 185.8000030517578 L 152.8000030517578 185.8000030517578 Z" class="st2" style="fill: rgb(255, 220, 108);"/>
			<path class="st1" d="M164.3,171.6c1.1,0,2-0.4,2.9-1.5c0.7-0.9,0.9-1.5,0.9-2.3c0-0.3,0-0.6-0.1-0.9c-0.4-2-2-2.9-3.8-3&#10;&#9;&#9;&#9;&#9;c-1.3,0-2.4,0.5-3.1,1.6c-0.6,0.9-0.8,1.7-0.8,2.4C160.2,169.8,162.2,171.6,164.3,171.6z" style="fill: rgb(221, 131, 138);"/>
			<path d="M 168.89999389648438 171.39999389648438 L 168.89999389648438 171.39999389648438 L 168.89999389648438 171.39999389648438 Z" class="st2" style="fill: rgb(255, 220, 108);"/>
			<path d="M 152.8000030517578 224.10000610351562 L 152.8000030517578 224.10000610351562 L 152.8000030517578 224.10000610351562 Z" class="st2" style="fill: rgb(255, 220, 108);"/>
			<path class="st1" d="M151.9,219.6c-0.4-2-2-2.9-3.8-3c-1.3,0-2.5,0.5-3.2,1.6c-0.6,0.9-0.8,1.7-0.8,2.4c0,1.9,2,3.7,4.1,3.7&#10;&#9;&#9;&#9;&#9;c1,0,2-0.4,2.9-1.5l0,0c0.7-0.9,0.9-1.5,0.9-2.3C152,220.2,152,219.9,151.9,219.6z" style="fill: rgb(221, 131, 138);"/>
			<path d="M 167.89999389648438 240 L 167.89999389648438 240 L 167.89999389648438 240 Z" class="st2" style="fill: rgb(255, 220, 108);"/>
			<path class="st1" d="M167,235.5c-0.4-2-2-2.9-3.8-3c-1.3,0-2.4,0.5-3.1,1.6c-0.6,0.9-0.8,1.7-0.8,2.4c0,1.9,2,3.7,4.1,3.7&#10;&#9;&#9;&#9;&#9;c1.1,0,2-0.4,2.9-1.5l0,0c0.7-0.9,0.9-1.5,0.9-2.3C167.1,236.1,167.1,235.8,167,235.5z" style="fill: rgb(221, 131, 138);"/>
			<path class="st1" d="M160.3,200.5c0,1.9,2,3.7,4.1,3.7c1,0,2-0.4,2.9-1.5v0c0.7-0.9,0.9-1.5,0.9-2.3c0-0.3,0-0.6-0.1-0.9&#10;&#9;&#9;&#9;&#9;c-0.4-2-2-2.9-3.8-3c-1.3,0-2.5,0.5-3.1,1.6C160.5,199,160.3,199.8,160.3,200.5z" style="fill: rgb(221, 131, 138);"/>
			<path class="st1" d="M195.6,191.4c-0.4-2-2-2.9-3.8-3c-1.3,0-2.4,0.5-3.1,1.6c-0.6,0.9-0.8,1.7-0.8,2.4c0,1.9,2,3.7,4.1,3.7&#10;&#9;&#9;&#9;&#9;c1.1,0,2-0.4,2.9-1.5l0,0c0.7-0.9,0.9-1.5,0.9-2.3C195.7,192,195.7,191.7,195.6,191.4z" style="fill: rgb(221, 131, 138);"/>
		</g>
		<path class="st4" d="M156.1,160.1c0,0,12.2-7.3,26.3-4.2c14.1,3.1,22,6.8,26.4,11.8c4.4,5,23.1-58.5-19.7-56.9&#10;&#9;&#9;&#9;C146.2,112.5,147.8,144.4,156.1,160.1z" style="fill: rgb(183, 120, 249);"/>
		<path class="st4" d="M218.8,224.6c0,0,7.6-12,4.9-26.2c-2.7-14.2-6.2-22.2-11.1-26.7c-4.9-4.6,59.1-21.5,56.3,21.3&#10;&#9;&#9;&#9;C266.1,235.8,234.2,233.2,218.8,224.6z" style="fill: rgb(183, 120, 249);"/>
		<path class="st4" d="M222.2,219.8c0,0-4.3,13.6-16.8,20.7c-12.6,7.1-20.9,9.5-27.6,8.8s21.7,59,52.6,29.3&#10;&#9;&#9;&#9;C261.3,248.7,238.8,226,222.2,219.8z" style="fill: rgb(183, 120, 249);"/>
		<path class="st4" d="M135.4,222.6c0,0,5.2,13.3,18.2,19.5c13,6.3,21.5,8.1,28.1,6.9c6.6-1.2-17.8,60.3-50.6,32.6&#10;&#9;&#9;&#9;C98.3,254,119.3,229.9,135.4,222.6z" style="fill: rgb(183, 120, 249);"/>
		<path class="st4" d="M134.5,217.6c0,0-5.5-13.1-0.6-26.7c5-13.5,9.8-20.8,15.3-24.5c5.6-3.7-54.8-30.9-59,11.8&#10;&#9;&#9;&#9;C86,220.9,117.8,223.6,134.5,217.6z" style="fill: rgb(183, 120, 249);"/>
		<path d="M288.3,138.6c-5.7-2.1-11.7-3.1-17.8-3.1c-5.2,0-10.4,0.8-15.5,2.4c0.6-1.4,1.1-2.8,1.3-4.1c0.1-0.5,0.1-1.1,0.1-1.6&#10;&#9;&#9;&#9;c0-3.9-2.1-8-5.9-9.9c-1.6-0.7-3.4-1.1-5.2-1.1c-1.9,0-3.8,0.3-5.4,1.1c-1.9,0.8-3.5,2-4.8,3.2c-1-12.8-6.2-25.3-16.8-34&#10;&#9;&#9;&#9;c-9.7-8.1-21.8-12-33.7-12c-22.8-0.1-45.5,14.7-50.3,42.6c-2.2-2.1-4.8-3.8-7.6-4.8c-1.2-0.4-2.3-0.6-3.5-0.6&#10;&#9;&#9;&#9;c-5.1,0-9.8,3.7-10.6,9.1c-0.1,0.7-0.2,1.4-0.2,2.2c0,2.2,0.5,4.3,1,6.1c-4.6-1.5-9.5-2.5-14.7-2.6c-1.6,0-3.3,0.1-5,0.3&#10;&#9;&#9;&#9;c-30.2,3.5-46.5,28.1-46.4,52.3c0,4.7,0.6,9.4,1.8,14c4.5,17,15.3,28.3,28.2,34.3c-0.6,0.4-1.2,0.9-1.8,1.5&#10;&#9;&#9;&#9;c-3.1,2.7-5.5,6.9-5.6,11.5c0,2.3,0.7,4.8,2.5,6.7c2.8,3.2,6.5,4.3,10,4.3c0.5,0,1-0.1,1.5-0.1c-0.8,1.1-1.6,2.2-2.3,3.3v0&#10;&#9;&#9;&#9;c-5.6,8.7-8.1,17.7-8.1,26.3c0.1,26.8,24,48.8,52.8,48.9c2.1,0,4.2-0.1,6.4-0.4c14.6-1.7,27.4-12.3,34.9-24.3&#10;&#9;&#9;&#9;c0.2,0.5,0.5,1.1,0.8,1.6c2,3.2,5.4,4.9,8.7,4.9c0,0,0,0,0.1,0c2.6,0,5.3-1,7.5-2.8c1.2-1,2.3-2.3,3.2-3.9&#10;&#9;&#9;&#9;c8.8,15.6,23.4,25.7,41.9,25.7c0,0,0.1,0,0.1,0c5.1,0,10.5-0.8,16.1-2.3c23-6.5,38.6-27.8,38.7-50.2c0-9.1-2.6-18.4-8.4-26.7&#10;&#9;&#9;&#9;c-0.7-1-1.5-2-2.2-3c0.1,0,0.2,0,0.4,0c1,0,2-0.1,2.9-0.2c6.1-1,10.8-5.4,10.8-11.1c0-2.3-0.8-4.6-2.3-6.8c-1.1-1.5-2.4-2.9-3.7-4&#10;&#9;&#9;&#9;c5-0.9,9.8-2.3,14.2-4.3c15.8-7.5,22.9-24.3,22.9-40.8c0-12.3-3.9-24.7-11.4-33.8C302.6,145.9,295.8,141.3,288.3,138.6z&#10;&#9;&#9;&#9; M234,142.2c0.7-3.4,1-6.9,1.1-10.4c0.2-0.3,0.5-0.7,0.7-1c1.3-1.7,3.3-3.7,5.6-4.7c1-0.5,2.4-0.7,3.7-0.7c1.3,0,2.5,0.2,3.5,0.7&#10;&#9;&#9;&#9;c2,0.8,3.5,3.5,3.4,6c0,0.3,0,0.6-0.1,1c-0.3,1.8-1.2,4.1-3.4,7.1c-2,0.9-3.9,1.8-5.8,3c-4.2,2.6-8.1,5.6-11.5,8.6&#10;&#9;&#9;&#9;C232.4,148.7,233.3,145.5,234,142.2z M140.1,125.2c3.6-26.2,23.7-39.3,44.4-39.4c10.5,0,21.1,3.5,29.6,10.5&#10;&#9;&#9;&#9;c10.1,8.4,14.7,20.7,14.7,33.6c0,3.7-0.4,7.4-1.1,11c-2.1,10.6-7.2,20.9-10.6,26.7c-0.3,0.4-0.5,0.7-0.7,1&#10;&#9;&#9;&#9;c-4.2-4.6-9.3-8.5-15.5-11.3c3.2-9.2,5.7-18.6,7.5-25.5l-4.1-1c-1.7,6.8-4.2,16-7.3,25c-1.3-0.5-2.6-0.9-3.9-1.3&#10;&#9;&#9;&#9;c2.1-9.9,3.8-19.6,4.8-26.2l-4.2-0.7c-1.1,6.6-2.7,16.1-4.8,25.9c-1.5-0.3-3-0.6-4.4-0.8c0.9-10,1.8-19.6,2.4-26l-4.3-0.4&#10;&#9;&#9;&#9;c-0.6,6.4-1.4,16-2.3,25.9c-1-0.1-2.1-0.1-3.1-0.1c-0.5,0-1,0-1.5,0.1c-0.1-4.1-0.1-8.1-0.1-11.8c0-4.8,0-9.2,0.1-12.8l-4.3-0.1&#10;&#9;&#9;&#9;c0,3.6-0.1,8-0.1,12.9c0,3.8,0,8,0.1,12.1c-1.5,0.2-3,0.4-4.5,0.7c-1-8.1-1.7-16.1-2.2-22.4l-4.3,0.3c0.4,6.5,1.1,14.8,2.2,23.2&#10;&#9;&#9;&#9;c-5,1.5-9.7,3.9-13.9,7c-0.1-0.1-0.1-0.2-0.2-0.3c-2.9-4.3-8.9-14.7-8.9-28.8C139.7,129.9,139.8,127.6,140.1,125.2z M166.2,238.6&#10;&#9;&#9;&#9;c-0.9,1.1-1.9,1.5-2.9,1.5c-2.1,0-4.1-1.8-4.1-3.7c0-0.7,0.2-1.4,0.8-2.4c0.7-1,1.8-1.6,3.1-1.6c1.8,0,3.4,1,3.8,3&#10;&#9;&#9;&#9;c0.1,0.3,0.1,0.6,0.1,0.9C167.1,237.2,166.9,237.7,166.2,238.6L166.2,238.6z M169.5,241.3L169.5,241.3c1.1-1.4,1.9-3.1,1.9-4.9&#10;&#9;&#9;&#9;c0-0.6-0.1-1.2-0.2-1.8c-0.9-4.1-4.6-6.4-8-6.3c-2.5,0-5.1,1.1-6.7,3.4c-1,1.5-1.6,3.2-1.6,4.8c0,1.7,0.6,3.2,1.5,4.4&#10;&#9;&#9;&#9;c-0.1-0.1-0.3-0.1-0.4-0.2c-14-7.7-21.5-22.7-21.5-38c0-5.8,1.1-11.7,3.3-17.3c0.7-1.6,1.4-3.1,2.2-4.6c-0.1,0.5-0.2,1-0.2,1.4&#10;&#9;&#9;&#9;c0.1,4.7,4.1,7.9,8.3,7.9c0,0,0,0,0.1,0c2.2,0,4.5-1,6.2-3.1l0,0c1.1-1.4,1.9-3,1.8-4.9c0-0.6-0.1-1.2-0.2-1.8&#10;&#9;&#9;&#9;c-0.9-4.1-4.6-6.4-8-6.3c-1.6,0-3.3,0.5-4.8,1.5c3.8-5.3,8.6-9.5,14.2-12.4c-1,1.5-1.5,3.1-1.5,4.7c0.1,4.7,4.1,7.9,8.3,7.9&#10;&#9;&#9;&#9;c0,0,0,0,0.1,0c2.2,0,4.6-1,6.2-3.1l0,0c1.1-1.4,1.9-3,1.9-4.9c0-0.6-0.1-1.2-0.2-1.8c-0.7-3.4-3.3-5.4-6.1-6.1&#10;&#9;&#9;&#9;c3.5-0.9,7.1-1.5,10.9-1.5c5.8,0,12,1.1,18.3,3.5h0c18.1,6.8,27.3,23.7,27.3,40.9c0,16.6-8.6,32.9-25.8,40.1&#10;&#9;&#9;&#9;c-5.9,2.4-12,3.6-18,3.6c-4.9,0-9.7-0.8-14.3-2.3C166.4,243.9,168.2,243,169.5,241.3z M144.1,182.3c0-0.7,0.2-1.4,0.8-2.4&#10;&#9;&#9;&#9;c0.7-1,1.9-1.6,3.2-1.6c1.8,0.1,3.4,1,3.8,3c0.1,0.3,0.1,0.6,0.1,0.9c0,0.8-0.2,1.3-0.9,2.3c-0.9,1.1-1.9,1.5-2.9,1.5&#10;&#9;&#9;&#9;C146.1,185.9,144.1,184.1,144.1,182.3z M160.2,167.9c0-0.7,0.2-1.4,0.8-2.4c0.7-1,1.8-1.5,3.1-1.6c1.8,0,3.4,1,3.8,3&#10;&#9;&#9;&#9;c0.1,0.3,0.1,0.6,0.1,0.9c0,0.8-0.2,1.4-0.9,2.3c-0.9,1.1-1.9,1.5-2.9,1.5C162.2,171.6,160.2,169.8,160.2,167.9z M116.7,126.5&#10;&#9;&#9;&#9;c0.5-3.4,3.2-5.5,6.4-5.5c0.7,0,1.4,0.1,2.2,0.4c2.9,0.9,6,3.4,8.1,6.2c-0.1,1.5-0.2,3.1-0.2,4.5c0,5.5,0.8,10.5,2,14.8&#10;&#9;&#9;&#9;c-4.6-3.9-10.2-7.8-16.5-10.7c-0.2-0.4-0.4-0.8-0.5-1.2c-0.8-2-1.6-4.6-1.6-7C116.6,127.5,116.7,127,116.7,126.5z M55.4,196.5&#10;&#9;&#9;&#9;c-1.1-4-1.6-8.2-1.6-12.3c0.1-21.5,14-42.8,40.7-46c1.4-0.2,2.8-0.2,4.2-0.2c12.9,0,24.5,7,32.9,14.3c4.2,3.6,7.5,7.3,9.8,10&#10;&#9;&#9;&#9;c0.7,0.8,1.3,1.6,1.8,2.2c0.2,0.3,0.3,0.5,0.5,0.7c-3.3,3.2-6.2,6.8-8.6,11c-8.5-4-17-7.4-23.6-9.9l-1.5,4&#10;&#9;&#9;&#9;c6.4,2.4,14.8,5.8,23.1,9.7c-0.5,1-0.9,2-1.3,3c-0.1,0.3-0.2,0.6-0.3,0.9c-9.6-3.3-18.9-6.2-25.5-8.2l-1.2,4.1&#10;&#9;&#9;&#9;c6.6,2,15.8,4.9,25.3,8.1c-0.4,1.3-0.7,2.6-1,4c-10.4-2.4-20.2-4.6-27-6.2l-1,4.2c6.8,1.6,16.8,3.9,27.3,6.3&#10;&#9;&#9;&#9;c-0.1,1.2-0.3,2.4-0.3,3.7c-11.1-1.2-21.4-2.7-28.6-3.9l-0.7,4.2c7.3,1.2,17.9,2.7,29.2,3.9c0,1,0.1,2,0.2,3&#10;&#9;&#9;&#9;c-1.5,0-3.1,0.1-4.6,0.1c-9.8,0-18.7-0.5-25.4-1l-0.3,4.3c6.8,0.5,15.8,1,25.7,1c1.7,0,3.4,0,5.1-0.1c0.6,3.9,1.7,7.7,3.2,11.3&#10;&#9;&#9;&#9;c-6.5,2.4-18,6.7-20.5,7.2c-3.7,0.8-7.4,1.2-11.2,1.2C80.6,230.9,61.8,220,55.4,196.5z M82.6,252.1c-2.8,0-5-0.7-6.8-2.8&#10;&#9;&#9;&#9;c-1-1.2-1.4-2.5-1.4-3.9c0-2.8,1.8-6.3,4.1-8.3c1.3-1.2,2.8-2.1,3.9-2.7c5.8,2,11.9,3,18.1,3c1.7,0,3.5-0.1,5.2-0.2&#10;&#9;&#9;&#9;c-7.3,4.7-12.9,9.4-17.3,14.1C86.3,251.8,84.4,252.1,82.6,252.1z M163,305.8c-6.4,11-18.6,21-30.8,22.3c-1.9,0.2-3.8,0.3-5.6,0.3&#10;&#9;&#9;&#9;c-25.5,0-46.3-19.7-46.4-42.5c0-7.3,2.1-15.1,7.1-22.8c6.9-10.9,20.1-21.7,47.9-34.4c1.5,2.5,3.2,4.9,5.1,7.1&#10;&#9;&#9;&#9;c-5.6,4.6-13.3,11.2-20.8,18.5l3,3.1c7.4-7.3,15.1-13.9,20.7-18.5c0.6,0.6,1.3,1.2,2,1.8c-5,5.6-11.7,13.2-18.4,20.8l3.2,2.8&#10;&#9;&#9;&#9;c6.8-7.7,13.5-15.4,18.5-21c0.8,0.6,1.7,1.1,2.5,1.7c-4.2,6.4-9.9,14.8-15.9,22.7l3.4,2.6c6.2-8.1,11.9-16.7,16.2-23.2&#10;&#9;&#9;&#9;c0.9,0.5,1.8,0.9,2.7,1.3c-3.2,6.9-7.8,15.9-13,24.2l3.6,2.3v0c5.5-8.6,10.1-17.8,13.4-24.9c0.9,0.3,1.7,0.6,2.6,0.8&#10;&#9;&#9;&#9;c-2.2,7.1-5.5,16.5-9.7,25l3.8,1.9c4.4-8.9,7.8-18.6,10-25.9c2.6,0.5,5.2,0.9,7.9,1c0,0.1,0,0.1,0,0.2&#10;&#9;&#9;&#9;C175.9,261.7,174.1,286.7,163,305.8z M182.1,310.6c-1.5,1.2-3.2,1.8-4.8,1.8c-2,0-3.9-0.9-5.2-2.9c-1-1.6-1.4-3.3-1.5-4.7&#10;&#9;&#9;&#9;c3.7-7.5,6.4-15.3,8.1-22.7c0.6,3.1,1.2,6.4,2.1,9.7c1.2,4.8,2.7,9.3,4.7,13.5C184.6,307.9,183.4,309.6,182.1,310.6z M278.4,283.2&#10;&#9;&#9;&#9;c0,19.4-13.8,38.4-34,44c-5.1,1.4-9.9,2.1-14.3,2.1c-21.7,0-36.9-15.4-43-39.2c-3.9-15.7-4.5-31.1-4.5-37.4&#10;&#9;&#9;&#9;c3.2-0.2,6.3-0.7,9.5-1.5c3.5,9.5,8.2,20.9,12.7,28.8l3.7-2.1c-4.2-7.3-8.8-18.5-12.3-27.9c1-0.3,1.9-0.6,2.8-1&#10;&#9;&#9;&#9;c4.7,8.8,10.5,19.2,15.6,26.3l3.5-2.5c-4.8-6.8-10.6-17-15.2-25.7c1-0.5,1.9-1,2.8-1.5c5.6,7.7,12.4,16.8,17.9,23.6l3.3-2.7&#10;&#9;&#9;&#9;c-5.4-6.6-12.1-15.7-17.6-23.3c0.8-0.6,1.6-1.2,2.4-1.9c6.3,6.4,14,14.3,20,20.9l3.1-2.9c-6.1-6.6-13.7-14.5-20-20.9&#10;&#9;&#9;&#9;c0.6-0.6,1.2-1.3,1.8-1.9c6.9,5.1,15.5,11.9,22.3,18.2l2.9-3.1c-6.9-6.4-15.6-13.2-22.5-18.3c1.5-2,2.8-4.1,4-6.3&#10;&#9;&#9;&#9;c2.8,0.8,8.8,2.6,16.1,6.3c10.2,5.1,22.6,13.5,31.8,26.7C276.1,267.4,278.4,275.3,278.4,283.2z M282.5,237.7&#10;&#9;&#9;&#9;c1.1,1.6,1.5,3.1,1.5,4.4c0,3.2-2.6,6-7.2,6.9c-0.7,0.1-1.4,0.2-2.2,0.2c-1.3,0-2.8-0.2-4.4-0.7c-6.6-7.3-13.9-12.9-20.8-17&#10;&#9;&#9;&#9;c5.8,0.7,11.6,1.1,17.4,1.1c3.2,0,6.3-0.2,9.4-0.4c0.4,0.2,0.7,0.4,1.1,0.7C279,234.1,281.2,235.8,282.5,237.7z M293.8,221.2&#10;&#9;&#9;&#9;c-7.5,3.6-17,5-27.1,5c-13.6,0-28.2-2.5-40.8-5.2c1.2-3.4,2.1-6.9,2.6-10.5c8.9-0.2,19.3-0.3,28.4-0.7l-0.2-4.3&#10;&#9;&#9;&#9;c-8.8,0.4-18.9,0.5-27.7,0.7c0.1-1.2,0.1-2.3,0.1-3.5c0-0.2,0-0.4,0-0.6c9-1.3,19.4-2.5,27.8-3.3l-0.4-4.2l0,0&#10;&#9;&#9;&#9;c-8.3,0.8-18.6,1.9-27.6,3.2c-0.1-1.2-0.2-2.3-0.4-3.5c8.9-2.6,19.3-4.9,27.1-6.2l-0.7-4.2c-7.8,1.4-18.1,3.6-27.2,6.2&#10;&#9;&#9;&#9;c-0.2-0.9-0.4-1.7-0.7-2.6c8.4-3.8,18.3-7.3,25.7-9.5l-1.2-4.1c-7.5,2.2-17.3,5.7-25.9,9.5c-0.2-0.5-0.4-1-0.6-1.5&#10;&#9;&#9;&#9;c7.6-4.7,16.4-9.2,23.5-12.5l-1.8-3.9c-7.1,3.3-15.9,7.7-23.6,12.5c-0.8-1.4-1.6-2.8-2.5-4.2c0.6-0.8,1.2-1.7,1.9-2.8&#10;&#9;&#9;&#9;c1.1-1.5,2.6-3.4,4.3-5.4c4.7-5.6,11.5-12.4,19.5-17.2c7.3-4.4,15.8-6.7,24.3-6.7c5.3,0,10.6,0.9,15.6,2.7&#10;&#9;&#9;&#9;c6.5,2.4,12.4,6.3,17,11.9c6.4,7.7,9.9,18.8,9.9,29.7C313,201,306.7,215.1,293.8,221.2z"/>
		<path d="M183,244c2.2,0,4.6-1,6.2-3.1v0c1.1-1.3,1.9-3.1,1.9-4.9c0-0.6-0.1-1.2-0.2-1.8c-0.9-4.1-4.6-6.4-8-6.3&#10;&#9;&#9;&#9;c-2.5,0-5.1,1.1-6.7,3.4c-1,1.5-1.6,3.2-1.6,4.8C174.7,240.7,178.8,244,183,244C183,244,183,244,183,244z M178.9,236.1&#10;&#9;&#9;&#9;c0-0.7,0.2-1.4,0.8-2.4c0.7-1,1.8-1.6,3.1-1.6c1.8,0,3.4,1,3.8,3c0.1,0.3,0.1,0.6,0.1,0.9c0,0.8-0.2,1.4-0.9,2.3&#10;&#9;&#9;&#9;c-0.9,1.1-1.9,1.5-2.9,1.5C180.9,239.7,178.9,237.9,178.9,236.1z"/>
		<path d="M169.9,226.6c2.2,0,4.6-1,6.2-3.1v0c1.1-1.3,1.9-3.1,1.9-4.9c0-0.6-0.1-1.2-0.2-1.8c-0.9-4.1-4.6-6.4-8-6.3&#10;&#9;&#9;&#9;c-2.5,0-5.1,1.1-6.7,3.4c-1,1.5-1.6,3.2-1.6,4.8C161.6,223.3,165.6,226.5,169.9,226.6C169.9,226.6,169.9,226.6,169.9,226.6z&#10;&#9;&#9;&#9; M165.8,218.6c0-0.7,0.2-1.4,0.8-2.4c0.7-1,1.8-1.6,3.1-1.6c1.8,0,3.4,1,3.8,3c0.1,0.3,0.1,0.6,0.1,0.9c0,0.8-0.2,1.4-0.9,2.3&#10;&#9;&#9;&#9;c-0.9,1.1-1.9,1.5-2.9,1.5C167.8,222.3,165.8,220.5,165.8,218.6z"/>
		<path d="M164.5,208.4c2.2,0,4.6-1,6.2-3.1v0c1.1-1.3,1.9-3.1,1.9-4.9c0-0.6-0.1-1.2-0.2-1.8c-0.9-4.1-4.6-6.4-8-6.3&#10;&#9;&#9;&#9;c-2.5,0-5.1,1.1-6.7,3.4c-1,1.5-1.6,3.2-1.6,4.8C156.2,205.1,160.2,208.4,164.5,208.4C164.4,208.4,164.4,208.4,164.5,208.4z&#10;&#9;&#9;&#9; M160.3,200.5c0-0.7,0.2-1.4,0.8-2.4c0.7-1,1.8-1.6,3.1-1.6c1.8,0,3.4,1,3.8,3c0.1,0.3,0.1,0.6,0.1,0.9c0,0.8-0.2,1.4-0.9,2.3&#10;&#9;&#9;&#9;c-0.9,1.1-1.9,1.5-2.9,1.5C162.3,204.1,160.3,202.3,160.3,200.5z"/>
		<path d="M191.9,200.3c2.2,0,4.6-1,6.2-3.1v0c1.1-1.3,1.9-3.1,1.9-4.9c0-0.6-0.1-1.2-0.2-1.8c-0.9-4.1-4.6-6.4-8-6.3&#10;&#9;&#9;&#9;c-2.5,0-5.1,1.1-6.7,3.4c-1,1.5-1.6,3.2-1.6,4.8C183.6,197,187.7,200.2,191.9,200.3C191.9,200.3,191.9,200.3,191.9,200.3z&#10;&#9;&#9;&#9; M187.8,192.3c0-0.7,0.2-1.4,0.8-2.4c0.7-1,1.8-1.6,3.1-1.6c1.8,0,3.4,1,3.8,3c0.1,0.3,0.1,0.6,0.1,0.9c0,0.8-0.2,1.4-0.9,2.3&#10;&#9;&#9;&#9;c-0.9,1.1-1.9,1.5-2.9,1.5C189.8,196,187.8,194.2,187.8,192.3z"/>
		<path d="M172.6,191.4c2.2,0,4.6-1,6.2-3.1v0c1.1-1.3,1.9-3.1,1.9-4.9c0-0.6-0.1-1.2-0.2-1.8c-0.9-4.1-4.6-6.4-8-6.3&#10;&#9;&#9;&#9;c-2.5,0-5.1,1.1-6.7,3.4c-1,1.5-1.6,3.2-1.6,4.8C164.3,188.1,168.3,191.3,172.6,191.4C172.6,191.4,172.6,191.4,172.6,191.4z&#10;&#9;&#9;&#9; M168.5,183.4c0-0.7,0.2-1.4,0.8-2.4c0.7-1,1.8-1.6,3.1-1.6c1.8,0,3.4,1,3.8,3c0.1,0.3,0.1,0.6,0.1,0.9c0,0.8-0.2,1.4-0.9,2.3&#10;&#9;&#9;&#9;c-0.9,1.1-1.9,1.5-2.9,1.5C170.5,187.1,168.5,185.3,168.5,183.4z"/>
		<path d="M186.5,176.3c2.2,0,4.6-1,6.2-3.1v0c1.1-1.3,1.9-3.1,1.9-4.9c0-0.6-0.1-1.2-0.2-1.8c-0.9-4.1-4.6-6.4-8-6.3&#10;&#9;&#9;&#9;c-2.5,0-5.1,1.1-6.7,3.4c-1,1.5-1.6,3.2-1.6,4.8C178.2,173,182.2,176.2,186.5,176.3C186.5,176.3,186.5,176.3,186.5,176.3z&#10;&#9;&#9;&#9; M182.4,168.3c0-0.7,0.2-1.4,0.8-2.4c0.7-1,1.8-1.6,3.1-1.6c1.8,0,3.4,1,3.8,3c0.1,0.3,0.1,0.6,0.1,0.9c0,0.8-0.2,1.4-0.9,2.3&#10;&#9;&#9;&#9;c-0.9,1.1-1.9,1.5-2.9,1.5C184.4,172,182.4,170.2,182.4,168.3z"/>
		<path d="M206.6,188.7c2.2,0,4.6-1,6.2-3.1v0c1.1-1.3,1.9-3.1,1.9-4.9c0-0.6-0.1-1.2-0.2-1.8c-0.9-4.1-4.6-6.4-8-6.3&#10;&#9;&#9;&#9;c-2.5,0-5.1,1.1-6.7,3.4c-1,1.5-1.6,3.2-1.6,4.8C198.3,185.4,202.4,188.6,206.6,188.7C206.6,188.7,206.6,188.7,206.6,188.7z&#10;&#9;&#9;&#9; M202.5,180.7c0-0.7,0.2-1.4,0.8-2.4c0.7-1,1.8-1.6,3.1-1.6c1.8,0,3.4,1,3.8,3c0.1,0.3,0.1,0.6,0.1,0.9c0,0.8-0.2,1.4-0.9,2.3&#10;&#9;&#9;&#9;c-0.9,1.1-1.9,1.5-2.9,1.5C204.5,184.4,202.5,182.6,202.5,180.7z"/>
		<path d="M209,212.3c2.2,0,4.6-1,6.2-3.1v0c1.1-1.3,1.9-3,1.9-4.9c0-0.6-0.1-1.2-0.2-1.8c-0.9-4.1-4.6-6.4-8-6.3&#10;&#9;&#9;&#9;c-2.5,0-5.1,1.1-6.7,3.4c-1,1.5-1.6,3.2-1.6,4.8C200.7,209,204.7,212.2,209,212.3C208.9,212.3,208.9,212.3,209,212.3z&#10;&#9;&#9;&#9; M204.8,204.3c0-0.7,0.2-1.4,0.8-2.4c0.7-1,1.8-1.6,3.1-1.6c1.8,0,3.4,1,3.8,3c0.1,0.3,0.1,0.6,0.1,0.9c0,0.8-0.2,1.4-0.9,2.3&#10;&#9;&#9;&#9;c-0.9,1.1-1.9,1.5-2.9,1.5C206.8,208,204.8,206.2,204.8,204.3z"/>
		<path d="M204.7,233.9c2.2,0,4.6-1,6.2-3.1v0c1.1-1.3,1.9-3.1,1.9-4.9c0-0.6-0.1-1.2-0.2-1.8c-0.9-4.1-4.6-6.4-8-6.3&#10;&#9;&#9;&#9;c-2.5,0-5.1,1.1-6.7,3.4c-1,1.5-1.6,3.2-1.6,4.8C196.4,230.7,200.4,233.9,204.7,233.9C204.7,233.9,204.7,233.9,204.7,233.9z&#10;&#9;&#9;&#9; M200.6,226c0-0.7,0.2-1.4,0.8-2.4c0.7-1,1.8-1.6,3.1-1.6c1.8,0,3.4,1,3.8,3c0.1,0.3,0.1,0.6,0.1,0.9c0,0.8-0.2,1.4-0.9,2.3&#10;&#9;&#9;&#9;c-0.9,1.1-1.9,1.5-2.9,1.5C202.6,229.7,200.6,227.9,200.6,226z"/>
		<path d="M189.2,220.8c2.2,0,4.6-1,6.2-3.1v0c1.1-1.3,1.9-3.1,1.9-4.9c0-0.6-0.1-1.2-0.2-1.8c-0.9-4.1-4.6-6.4-8-6.3&#10;&#9;&#9;&#9;c-2.5,0-5.1,1.1-6.7,3.4c-1,1.5-1.6,3.2-1.6,4.8C180.9,217.5,184.9,220.7,189.2,220.8C189.2,220.8,189.2,220.8,189.2,220.8z&#10;&#9;&#9;&#9; M185.1,212.8c0-0.7,0.2-1.4,0.8-2.4c0.7-1,1.8-1.6,3.1-1.6c1.8,0,3.4,1,3.8,3c0.1,0.3,0.1,0.6,0.1,0.9c0,0.8-0.2,1.4-0.9,2.3&#10;&#9;&#9;&#9;c-0.9,1.1-1.9,1.5-2.9,1.5C187.1,216.5,185.1,214.7,185.1,212.8z"/>
		<path d="M148.2,228.5c2.2,0,4.6-1,6.2-3.1v0c1.1-1.3,1.9-3.1,1.9-4.9c0-0.6-0.1-1.2-0.2-1.8c-0.9-4.1-4.6-6.4-8-6.3&#10;&#9;&#9;&#9;c-2.5,0-5.1,1.1-6.7,3.4c-1,1.5-1.6,3.2-1.6,4.8C139.9,225.3,143.9,228.5,148.2,228.5C148.2,228.5,148.2,228.5,148.2,228.5z&#10;&#9;&#9;&#9; M144.1,220.6c0-0.7,0.2-1.4,0.8-2.4c0.7-1,1.8-1.6,3.1-1.6c1.8,0,3.4,1,3.8,3c0.1,0.3,0.1,0.6,0.1,0.9c0,0.8-0.2,1.4-0.9,2.3&#10;&#9;&#9;&#9;c-0.9,1.1-1.9,1.5-2.9,1.5C146.1,224.2,144.1,222.4,144.1,220.6z"/>
		<path d="M145.9,209.6c2.2,0,4.6-1,6.2-3.1v0c1.1-1.3,1.9-3,1.9-4.9c0-0.6-0.1-1.2-0.2-1.8c-0.9-4.1-4.6-6.4-8-6.3&#10;&#9;&#9;&#9;c-2.5,0-5.1,1.1-6.7,3.4c-1,1.5-1.6,3.2-1.6,4.8C137.6,206.3,141.6,209.5,145.9,209.6C145.9,209.6,145.9,209.6,145.9,209.6z&#10;&#9;&#9;&#9; M141.8,201.6c0-0.7,0.2-1.4,0.8-2.4c0.7-1,1.8-1.6,3.1-1.6c1.8,0,3.4,1,3.8,3c0.1,0.3,0.1,0.6,0.1,0.9c0,0.8-0.2,1.4-0.9,2.3&#10;&#9;&#9;&#9;c-0.9,1.1-1.9,1.5-2.9,1.5C143.8,205.3,141.8,203.5,141.8,201.6z"/>
	</g></g></g><g transform="matrix(0.32186540961265564, 0, 0, 0.32186540961265564, 4.077273297449466, 224.12321053214322)"><g transform="matrix(1, 0, 0, 1, 0, 0)"><path class="st1" d="M758,754.6c-79.7,0-144.3-64.6-144.3-144.3c0-27.4,7.6-53,20.9-74.8c-56.9,19.3-97.9,73.2-97.9,136.6&#10;&#9;&#9;&#9;c0,79.7,64.6,144.3,144.3,144.3c52.3,0,98.1-27.8,123.4-69.5C789.8,751.9,774.2,754.6,758,754.6z" style="fill: rgb(251, 209, 8);" transform="matrix(1, 0, 0, 1, 0, 0)"/><path d="M 651.599976 743.799988 A 26 26 0 0 1 625.599976 769.799988 A 26 26 0 0 1 599.599976 743.799988 A 26 26 0 0 1 625.599976 717.799988 A 26 26 0 0 1 651.599976 743.799988 Z" class="st4" style="fill: rgb(236, 182, 30);" transform="matrix(1, 0, 0, 1, 0, 0)"/><path d="M 672.200025 778.5 A 10.8 10.8 0 0 1 661.400024 789.3 A 10.8 10.8 0 0 1 650.600024 778.5 A 10.8 10.8 0 0 1 661.400024 767.7 A 10.8 10.8 0 0 1 672.200025 778.5 Z" class="st4" style="fill: rgb(236, 182, 30);" transform="matrix(1, 0, 0, 1, 0, 0)"/><path d="M 740.6 779.599976 A 7.6 7.6 0 0 1 733 787.199975 A 7.6 7.6 0 0 1 725.4 779.599976 A 7.6 7.6 0 0 1 733 771.999976 A 7.6 7.6 0 0 1 740.6 779.599976 Z" class="st4" style="fill: rgb(236, 182, 30);" transform="matrix(1, 0, 0, 1, 0, 0)"/><path d="M 598.500025 614.700012 A 14.1 14.1 0 0 1 584.400024 628.800013 A 14.1 14.1 0 0 1 570.300024 614.700012 A 14.1 14.1 0 0 1 584.400024 600.600012 A 14.1 14.1 0 0 1 598.500025 614.700012 Z" class="st4" style="fill: rgb(236, 182, 30);" transform="matrix(1, 0, 0, 1, 0, 0)"/><path class="st1" d="M694.1,621.6l5.4,16.7c0.8,2.4,3,4,5.5,4h17.6c5.6,0,8,7.2,3.4,10.5l-14.2,10.3c-2,1.5-2.9,4.1-2.1,6.5&#10;&#9;&#9;&#9;l5.4,16.7c1.7,5.4-4.4,9.8-8.9,6.5L692,682.5c-2-1.5-4.8-1.5-6.8,0l-14.2,10.3c-4.6,3.3-10.7-1.1-8.9-6.5l5.4-16.7&#10;&#9;&#9;&#9;c0.8-2.4-0.1-5-2.1-6.5l-14.2-10.3c-4.6-3.3-2.2-10.5,3.4-10.5h17.6c2.5,0,4.7-1.6,5.5-4l5.4-16.7&#10;&#9;&#9;&#9;C684.8,616.2,692.4,616.2,694.1,621.6z" style="fill: rgb(251, 209, 8);" transform="matrix(1, 0, 0, 1, 0, 0)"/><path class="st1" d="M754.1,581.5l4,12.4c0.6,1.8,2.2,3,4.1,3h13.1c4.2,0,5.9,5.4,2.5,7.8l-10.6,7.7c-1.5,1.1-2.2,3.1-1.6,4.8&#10;&#9;&#9;&#9;l4,12.4c1.3,4-3.3,7.3-6.7,4.8l-10.6-7.7c-1.5-1.1-3.6-1.1-5.1,0l-10.6,7.7c-3.4,2.5-8-0.9-6.7-4.8l4-12.4&#10;&#9;&#9;&#9;c0.6-1.8-0.1-3.7-1.6-4.8l-10.6-7.7c-3.4-2.5-1.6-7.8,2.5-7.8h13.1c1.9,0,3.5-1.2,4.1-3l4-12.4&#10;&#9;&#9;&#9;C747.2,577.5,752.8,577.5,754.1,581.5z" style="fill: rgb(251, 209, 8);" transform="matrix(1, 0, 0, 1, 0, 0)"/></g></g></svg>